<svg width="1024" height="1024" xmlns="http://www.w3.org/2000/svg" version="1.1">
 <g>
  <title>Layer 1</title>
  <path d="m205.32624,145.09347c209.08196,0 418.16392,0 633.5817,0c2.28067,5.59558 2.84493,8.03588 2.84194,13.7842c0.0053,1.5264 0.01061,3.05281 0.01607,4.62547c-0.00694,1.68406 -0.01413,3.36811 -0.02154,5.05216c0.00135,1.78355 0.00381,3.5671 0.00727,5.35065c0.00615,4.86139 -0.00359,9.72266 -0.01638,14.58404c-0.0112,5.16839 -0.00888,10.33678 -0.0084,15.50518c-0.00119,8.755 -0.01217,17.50993 -0.02943,26.2649c-0.01734,8.82224 -0.0266,17.64444 -0.02594,26.46671c0.00286,43.45732 -0.08091,86.91129 -0.76297,130.36422c-0.03924,2.52854 -0.07651,5.05711 -0.11343,7.58569c-0.0695,4.59594 -0.14811,9.19163 -0.23078,13.78736c-0.02039,1.35502 -0.04077,2.71005 -0.06178,4.10616c-0.02446,1.21789 -0.04893,2.43578 -0.07412,3.69059c-0.02842,1.58835 -0.02842,1.58835 -0.0574,3.20878c-0.1985,2.38933 -0.1985,2.38933 -1.46313,3.63043c-2.95035,0.0508 -5.90211,0.05265 -8.85244,0c-1.71326,-3.36276 -1.51466,-6.12894 -1.62031,-9.89002c-0.04727,-1.50387 -0.09456,-3.00773 -0.14326,-4.55716c-0.04402,-1.58067 -0.08803,-3.16132 -0.13338,-4.78988c0.60494,-16.85245 0.60494,-16.85245 -3.16159,-32.88916c-0.21744,-1.65233 -0.37505,-3.3125 -0.49894,-4.9741c-1.05933,-12.78562 -2.81833,-24.76552 -6.36702,-37.12696c-0.77659,-2.77406 -1.48756,-5.55935 -2.18903,-8.35258c-4.86519,-19.20937 -11.2116,-36.60677 -21.29624,-53.7988c-0.46786,-0.83673 -0.93573,-1.67345 -1.41777,-2.53553c-2.92458,-5.20438 -6.29301,-10.06746 -9.74657,-14.94168c-1.482,-2.38039 -1.482,-2.38039 -1.482,-4.86259c-1.25199,-0.40956 -2.50398,-0.81913 -3.7939,-1.2411c-1.63019,-1.90044 -1.63019,-1.90044 -3.31966,-4.34385c-3.93746,-5.40597 -8.52023,-9.85704 -13.42686,-14.4181c-2.22299,-2.33676 -2.22299,-2.33676 -2.22299,-4.81896c-0.92269,-0.30237 -1.84538,-0.60475 -2.79603,-0.91628c-3.95227,-1.75467 -6.2726,-3.8039 -9.37607,-6.76303c-24.92354,-22.49006 -59.24057,-34.02396 -91.5279,-41.96471c-1.43131,-0.35517 -2.86261,-0.71033 -4.3373,-1.07627c-23.92477,-5.46167 -48.32218,-7.0338 -72.80538,-7.61143c1.72858,7.15089 3.82938,14.06689 6.24413,21.02114c0.64384,1.87296 1.28769,3.74593 1.93153,5.61888c0.97129,2.81777 1.94368,5.63513 2.92046,8.45106c2.14371,6.22952 4.06751,12.49498 5.89741,18.81922c2.03077,6.91896 4.3212,13.55591 7.17285,20.19698c1.61652,4.07742 2.65687,8.25763 3.77414,12.48857c1.42096,4.96494 3.09247,9.82687 4.7819,14.70898c4.14968,12.02381 7.78782,24.16754 11.33231,36.37491c1.49003,5.03945 3.14884,9.8897 5.18697,14.74292c3.08605,7.37004 5.34656,14.94376 7.66684,22.57252c0.86778,2.74127 1.73719,5.48204 2.60831,8.22229c1.5749,4.99159 3.01877,9.98863 4.34718,15.04834c1.4219,5.24807 3.3867,9.92512 5.73037,14.83018c1.80291,4.20223 2.88158,8.53033 4.03597,12.93944c1.00614,3.65199 2.18678,7.2026 3.43328,10.78206c1.90011,5.46664 3.5703,10.95481 5.13758,16.52215c1.41352,4.95511 2.91766,9.69825 4.9795,14.42779c3.61945,8.42393 5.77671,17.33311 8.14417,26.15644c0.99764,3.42024 2.1538,6.77622 3.31658,10.14575c0.41305,1.2031 0.8261,2.40618 1.25167,3.64573c0.64708,1.88143 0.64708,1.88143 1.30724,3.80087c4.5467,13.26691 9.07558,26.48331 12.839,39.98671c1.31975,4.37046 3.04805,8.50454 4.83624,12.70673c3.67806,9.17914 6.19395,18.80871 8.93148,28.28837c3.13665,10.83362 6.88014,21.3636 10.82349,31.93895c1.45767,4.0498 2.73992,8.14141 4.01127,12.25102c2.89525,9.31568 6.05722,18.5358 9.22606,27.76425c5.46213,15.92193 10.79705,31.85529 15.55781,47.99531c0.89751,3.03872 1.79983,6.07587 2.71205,9.11039c0.2968,0.99241 0.59359,1.98482 0.89938,3.00731c0.96248,2.93098 2.09617,5.73232 3.32429,8.56498c3.13741,7.45573 5.2825,15.17152 7.55323,22.91188c2.43226,8.29007 5.34853,16.37045 8.33374,24.48264c2.54339,6.95171 4.83164,13.9427 7.00983,21.01145c2.10376,6.72382 4.37452,13.39022 6.68193,20.0491c0.66142,1.9107 1.31929,3.82258 1.97475,5.73525c5.95798,17.55302 5.95798,17.55302 14.13143,34.18602c0.57709,1.0175 1.15418,2.03502 1.74875,3.08337c1.0855,1.91143 2.18074,3.8176 3.29003,5.71584c1.28439,2.3707 1.28439,2.3707 2.54902,6.094c1.25199,0.40956 2.50398,0.81913 3.7939,1.2411c0.67816,0.89591 1.35632,1.79184 2.05503,2.71491c12.74715,14.81438 37.18559,21.81372 56.41331,23.61242c4.37928,0.28262 8.73244,0.44219 13.12182,0.51632c4.58286,0.49225 6.97785,1.44824 10.61106,4.18386c1.02752,2.71491 1.02752,2.71491 1.26463,4.9644c-4.49323,2.93975 -6.45137,2.81768 -11.7871,2.87793c-0.82167,0.01245 -1.64334,0.02491 -2.48991,0.03774c-2.79092,0.03888 -5.58167,0.05973 -8.37279,0.08042c-2.04079,0.02361 -4.08157,0.04808 -6.12235,0.07335c-5.67441,0.06613 -11.34886,0.11479 -17.02349,0.15928c-3.60253,0.02915 -7.20499,0.06241 -10.80746,0.09693c-48.18288,0.45641 -96.36913,0.56415 -144.55399,0.61849c-6.95377,0.00823 -13.90751,0.0221 -20.86127,0.038c-8.57129,0.01924 -17.14252,0.02877 -25.71382,0.02642c-4.43506,-0.00107 -8.87003,0.0017 -13.30508,0.01489c-4.86316,0.01421 -9.7262,0.00872 -14.58939,0.00133c-1.42346,0.00697 -2.84692,0.01396 -4.31353,0.02115c-7.09537,-0.02805 -13.08093,-0.44841 -19.77812,-2.80484c0.07904,-2.87005 0.07904,-2.87005 1.26463,-6.2055c6.23677,-3.20017 11.51323,-4.27316 18.57431,-4.88683c14.41878,-1.48969 28.61332,-4.9052 38.33422,-16.21188c3.74126,-10.41071 -0.13418,-22.65588 -3.82848,-32.54496c-1.1064,-3.10044 -1.86368,-6.04552 -2.49469,-9.26462c-1.0222,-4.9711 -2.9422,-9.16406 -5.13758,-13.73453c-1.18155,-2.7781 -1.85885,-5.34649 -2.45023,-8.29501c-0.80756,-4.01091 -1.94431,-7.55486 -3.55678,-11.32504c-3.06306,-7.17174 -5.32785,-14.54202 -7.6372,-21.97135c-1.26895,-4.04945 -2.61332,-8.0636 -3.98162,-12.08134c-0.82399,-2.60929 -1.64055,-5.22085 -2.45023,-7.83445c-2.9328,-9.3754 -6.08628,-18.62448 -9.48476,-27.84719c-3.43354,-9.3905 -6.46223,-18.87729 -9.27728,-28.46289c-1.87289,-6.33433 -4.10367,-12.38702 -6.64921,-18.49046c-3.60552,-8.8318 -6.13143,-17.96772 -8.75858,-27.11514c-1.61372,-5.42131 -3.42966,-10.76004 -5.28578,-16.10522c-0.83792,-2.47072 -1.57919,-4.97316 -2.27733,-7.48539c-1.22463,-4.0297 -2.68481,-7.80892 -4.26814,-11.71289c-3.29661,-8.26044 -5.84638,-16.64246 -8.31398,-25.16622c-1.1954,-4.11612 -2.53074,-8.16985 -3.93716,-12.22194c-0.38799,-1.17109 -0.77597,-2.34219 -1.17572,-3.54877c-1.9348,-5.80625 -3.91121,-11.5329 -6.33305,-17.1621c-2.72881,-6.50079 -4.6203,-13.18627 -6.5819,-19.9373c-1.73453,-5.89903 -3.78251,-11.52583 -6.2077,-17.18906c-1.85739,-4.60584 -3.2252,-9.34108 -4.67322,-14.08359c-2.00243,-6.45031 -4.21968,-12.83092 -6.40716,-19.22251c-3.40909,-9.98693 -6.77528,-19.98513 -10.03803,-30.01912c-0.36792,-1.13059 -0.73583,-2.2612 -1.11489,-3.42606c-2.04012,-6.32462 -3.92072,-12.66461 -5.68252,-19.06889c-2.0398,-7.22404 -4.956,-13.64225 -8.69436,-20.16788c-4.88456,9.24055 -7.36226,19.54086 -10.32084,29.49735c-2.2305,7.48318 -4.68783,14.86199 -7.29512,22.22649c-2.42124,6.95359 -4.55378,13.91788 -6.41209,21.03569c-1.99041,7.49298 -4.53097,14.44361 -7.5878,21.56412c-3.25452,8.12352 -5.79482,16.19644 -7.86939,24.68142c-2.19199,8.61565 -4.58172,17.24234 -8.49182,25.27288c-4.10089,8.57203 -6.32003,17.9058 -8.93148,26.99394c-1.8144,6.26517 -3.71356,12.35799 -6.24413,18.3838c-4.2408,10.1436 -7.14187,20.70657 -10.11707,31.26022c-1.64535,5.7244 -3.53461,11.22705 -5.76989,16.75486c-3.84598,9.51706 -6.60546,19.27218 -9.19824,29.18041c-1.37956,5.21905 -2.78809,10.09707 -5.18697,14.95623c-3.12179,6.4782 -4.78503,13.30758 -6.66064,20.20545c-1.67707,6.0928 -3.65242,11.85864 -6.1833,17.66751c-2.0372,4.99822 -3.53006,10.15658 -5.103,15.31013c-0.96736,3.13806 -1.99155,6.23777 -3.0776,9.33735c-1.60615,4.63555 -2.9425,9.32002 -4.26814,14.03995c-1.65567,5.79245 -3.5509,11.33408 -5.84893,16.90999c-2.46691,6.06361 -4.24783,12.04765 -5.76989,18.3838c-1.55449,6.45903 -3.42917,12.5055 -6.05641,18.62136c-9.57839,22.59478 -9.57839,22.59478 -7.53841,46.38128c4.86563,6.42167 9.97143,8.77194 17.78392,10.70449c0.8368,0.21028 1.67359,0.42056 2.53576,0.63722c4.602,1.11709 9.10389,1.9249 13.82545,2.3104c6.96566,0.78446 6.96566,0.78446 9.87995,4.26628c0.31616,3.33546 0.31616,3.33546 0,6.2055c-4.77987,1.56364 -9.26079,1.43988 -14.24177,1.45417c-1.07809,0.00788 -2.15619,0.01575 -3.26695,0.02388c-3.62607,0.02495 -7.25212,0.04109 -10.87824,0.05726c-2.5943,0.01595 -5.18858,0.03239 -7.78287,0.04931c-7.05734,0.04425 -14.1147,0.08051 -21.17209,0.11468c-4.40654,0.02169 -8.81306,0.04513 -13.21957,0.06919c-15.36533,0.08386 -30.73067,0.16132 -46.09605,0.23284c-14.33489,0.0669 -28.66966,0.14769 -43.00444,0.23499c-12.29733,0.07428 -24.59468,0.1389 -36.8921,0.19599c-7.34902,0.03429 -14.69796,0.07251 -22.0469,0.12041c-6.91092,0.04472 -13.82181,0.07743 -20.73284,0.10088c-2.53834,0.01065 -5.07665,0.0256 -7.61493,0.04515c-3.46162,0.02599 -6.92294,0.03654 -10.38464,0.04317c-1.00739,0.01122 -2.0148,0.02243 -3.05274,0.03398c-5.2441,-0.00779 -9.32472,-0.45527 -14.03946,-2.77591c0.45383,-3.22902 0.94201,-4.66898 3.40365,-6.92301c3.49179,-2.1106 6.04531,-2.47341 10.11213,-2.92823c23.93562,-3.27279 44.94683,-9.3032 60.70244,-28.77802c6.89836,-10.27171 10.82244,-22.5405 14.31112,-34.24662c1.33375,-4.31179 2.85109,-8.52594 4.42127,-12.76007c3.41695,-9.25775 6.35162,-18.62625 9.19824,-28.06535c3.43692,-11.37017 7.1884,-22.54987 11.74232,-33.53881c2.71158,-6.68039 4.88837,-13.22096 6.17004,-20.30848c0.77506,-4.08374 1.80048,-7.50821 3.63582,-11.24747c4.21925,-8.62523 6.46809,-18.04298 9.08956,-27.22664c0.83466,0 1.66932,0 2.52927,0c-0.07173,-1.21269 -0.14346,-2.42538 -0.21735,-3.67482c0.00579,-5.66354 1.7522,-10.43804 3.6951,-15.71737c0.69975,-1.97424 1.39793,-3.94902 2.09455,-5.92432c0.51596,-1.44886 0.51596,-1.44886 1.04234,-2.92701c1.78563,-5.10817 3.35614,-10.27707 4.94492,-15.44708c1.14597,-3.66023 2.38225,-7.28529 3.61606,-10.91781c0.85055,-2.68678 1.69352,-5.37589 2.52927,-8.06715c1.86499,-6.00561 3.83212,-11.96575 5.88721,-17.91112c3.35134,-9.70001 6.66619,-19.37596 9.44648,-29.2507c1.68432,-5.95614 3.73445,-11.54153 6.16509,-17.23482c2.05851,-5.27937 3.51619,-10.71507 5.05359,-16.15855c3.64866,-12.81829 7.51466,-25.67393 12.73033,-37.96992c1.63362,-3.92033 2.87306,-7.63784 3.71486,-11.79046c0.80622,-3.96295 1.9495,-7.44956 3.55678,-11.1699c4.46737,-10.45977 7.26111,-21.54156 10.38383,-32.44314c1.16518,-3.93364 2.43034,-7.81223 3.76426,-11.6935c0.41733,-1.21749 0.83466,-2.43498 1.26463,-3.68937c0.84309,-2.45311 1.68617,-4.90622 2.52927,-7.35933c1.31928,-3.92972 2.56486,-7.87635 3.7939,-11.83409c1.22468,-3.94373 2.46385,-7.87481 3.7939,-11.7856c1.79679,-5.29694 3.41638,-10.64415 5.05854,-15.98887c1.12329,-3.44064 2.42592,-6.72802 3.7939,-10.07909c0.86823,-2.62947 1.70998,-5.26747 2.52927,-7.91202c0.44342,-1.42867 0.88682,-2.85735 1.34367,-4.32931c0.84184,-2.76423 1.65573,-5.53671 2.45023,-8.31441c2.27974,-7.69078 4.97981,-15.25074 7.5878,-22.83915c1.31928,-3.92972 2.56486,-7.87635 3.7939,-11.83409c1.2273,-3.95215 2.46935,-7.8912 3.80378,-11.80984c1.28736,-3.80016 2.46051,-7.62308 3.62595,-11.46079c1.54445,-4.96255 3.19006,-9.79092 5.21662,-14.58293c4.01583,-9.56026 6.85487,-19.47487 9.48506,-29.47735c2.17571,-8.27387 4.78646,-16.04652 8.21982,-23.88997c2.26085,-5.32711 3.9514,-10.36267 4.9795,-16.05674c0.78039,-4.17751 1.83376,-7.65869 3.71486,-11.48018c3.81257,-7.79271 5.63708,-16.23403 7.74588,-24.5893c-43.63862,6.23364 -82.86571,17.05393 -120.07108,41.03874c-3.86307,2.39978 -3.86307,2.39978 -7.65697,3.64088c0,0.81913 0,1.63825 0,2.4822c-1.6808,1.41387 -3.43674,2.74176 -5.21662,4.03358c-5.96921,4.56935 -11.39381,9.496 -16.7564,14.73807c-0.75172,0.72674 -1.50345,1.45347 -2.27795,2.20222c-3.39294,3.35153 -6.409,6.59135 -8.99508,10.58694c-1.07104,1.57905 -1.07104,1.57905 -2.16371,3.19001c-0.83466,0 -1.66932,0 -2.52927,0c-0.2967,0.83833 -0.59339,1.67665 -0.89908,2.54038c-2.02051,4.54266 -4.7235,8.53088 -7.47912,12.6631c-19.14136,29.42484 -28.16558,62.99607 -32.91784,97.35185c-0.30681,2.01344 -0.66081,4.02023 -1.04913,6.02007c-2.25083,11.76949 -2.72016,23.54012 -3.26069,35.4762c-0.14637,3.15011 -0.29539,6.30004 -0.45122,9.44971c-0.0959,1.94453 -0.18623,3.88935 -0.27034,5.8344c-0.32217,6.62209 -0.32217,6.62209 -1.72867,9.38276c-3.33863,0 -6.67727,0 -10.11707,0c-0.00535,-0.67562 -0.0107,-1.35124 -0.01621,-2.04732c-0.16644,-20.97238 -0.33877,-41.94469 -0.51579,-62.91698c-0.01415,-1.67738 -0.02829,-3.35477 -0.0424,-5.03215c-0.47487,-57.73811 -0.47487,-57.73811 -1.40158,-115.47051c-0.38674,-19.58865 -0.70904,-39.17426 -0.77616,-58.76688c-0.00932,-2.45805 -0.02267,-4.9161 -0.04052,-7.37411c-0.02227,-3.30033 -0.02786,-6.60026 -0.02806,-9.90066c-0.01354,-1.44068 -0.01354,-1.44068 -0.02737,-2.91046c0.02348,-5.44327 0.71382,-8.35108 2.8481,-13.58746zm236.48658,37.23302c-0.18584,1.0367 -0.18584,1.0367 -0.37543,2.09436c-1.17629,5.89141 -2.84956,10.51892 -5.77484,15.83373c-2.36102,5.20746 -3.80157,10.68857 -5.32438,16.18036c-1.34385,4.76046 -2.89228,9.27916 -4.84704,13.83391c-3.98174,9.5235 -6.32368,19.54766 -8.971,29.48825c-2.0645,7.57801 -4.26046,14.67898 -7.69525,21.76259c-2.03325,4.52803 -3.22172,9.276 -4.47686,14.05723c-1.56482,5.85121 -3.1716,11.46669 -5.53277,17.06513c-0.86588,2.68207 -1.70785,5.37164 -2.52927,8.06715c-1.15682,3.79613 -2.30404,7.51879 -3.81366,11.19414c-1.42983,3.53591 -2.43919,7.08734 -3.45799,10.75782c-1.9599,6.85312 -4.13838,13.58774 -6.48125,20.32302c-3.27552,9.42808 -6.13235,18.93764 -8.78266,28.55288c-2.09403,7.4494 -4.79618,14.50195 -7.81567,21.63412c-3.41286,8.60595 -6.14858,17.2865 -8.67459,26.17946c-1.63808,5.62363 -3.50713,11.16902 -5.39446,16.71607c-0.32094,0.94562 -0.64189,1.89123 -0.97255,2.8655c-1.24001,3.6158 -2.49043,7.19158 -3.96248,10.72358c-1.73658,4.3599 -3.00072,8.82954 -4.3126,13.32729c-1.884,6.37386 -3.803,12.71267 -6.00207,18.98981c-1.78578,5.25764 -3.42563,10.56148 -5.0783,15.86069c-1.08538,3.44795 -2.19582,6.84076 -3.58643,10.18303c-1.56373,3.92046 -2.54807,7.89675 -3.59136,11.97952c-1.71096,6.52635 -3.7913,12.68788 -6.47631,18.888c-2.11774,5.3697 -3.57728,10.91959 -5.14252,16.46398c-1.48278,5.16594 -3.19826,10.22811 -4.9795,15.30044c-0.63432,1.86099 -1.26659,3.72266 -1.89695,5.58495c-0.92202,2.72396 -1.84801,5.44558 -2.80096,8.15927c-3.37536,9.68696 -6.10511,19.55802 -8.93642,29.40826c-1.54247,5.22418 -3.28342,10.23343 -5.41421,15.25681c-2.02453,4.81662 -3.31807,9.45555 -4.35706,14.55384c-0.85837,3.78408 -2.13184,7.38094 -3.42835,11.03901c-1.03257,3.00463 -1.92214,6.03067 -2.80591,9.0804c-1.20919,4.0236 -2.61497,7.75965 -4.42622,11.55775c-3.95839,8.41937 -6.37372,17.36382 -8.88701,26.28127c-2.45267,8.6904 -5.25756,17.0529 -8.70918,25.41347c-1.58239,4.10418 -2.80129,8.22285 -3.98162,12.45464c-3.09514,10.86113 -6.39872,21.59714 -10.11707,32.26861c-0.60788,1.78345 -1.21397,3.56749 -1.81791,5.35225c-1.17782,3.48048 -2.36979,6.95552 -3.57161,10.42815c-0.5747,1.66934 -1.14939,3.33868 -1.72405,5.00804c-0.27622,0.79243 -0.55243,1.58486 -0.83702,2.40129c-3.39007,9.87736 -5.94183,21.5445 -2.4777,31.74352c4.62467,8.20509 10.28768,11.82245 19.06831,14.71383c21.92152,5.99515 49.00355,6.64141 69.68826,-3.4809c6.41984,-3.74692 10.87617,-8.14853 15.25465,-14.03995c0.5673,-0.69273 1.13462,-1.38548 1.71912,-2.09921c5.76365,-7.80372 7.69505,-17.38648 10.25106,-26.54306c1.9031,-6.71342 4.28867,-13.17079 6.99933,-19.60552c2.30612,-5.53325 3.89505,-11.1049 5.41916,-16.88576c1.18729,-4.10683 2.98552,-7.89346 4.69791,-11.81469c2.34607,-7.36774 4.18976,-14.6663 5.05854,-22.33981c0.83466,0 1.66932,0 2.52927,0c0.21519,-0.90142 0.43037,-1.80284 0.65208,-2.73158c2.26753,-9.22757 5.04898,-18.16229 8.20036,-27.13241c2.94053,-8.40246 5.70115,-16.77082 7.94565,-25.38105c0.95794,-3.26077 2.17469,-6.32086 3.5151,-9.44733c1.66427,-3.90142 2.88678,-7.56319 3.71486,-11.71289c0.80518,-4.01448 2.01602,-7.39104 3.7939,-11.09234c1.70956,-3.57672 2.93845,-6.82937 3.71486,-10.70449c1.52984,-7.55906 4.21009,-14.75652 6.74986,-22.03256c1.61735,-4.64631 3.20452,-9.30247 4.78993,-13.95935c0.4805,-1.40897 0.4805,-1.40897 0.97071,-2.84641c2.35933,-6.95077 4.58355,-13.93124 6.7159,-20.95266c1.05788,-3.2609 2.31979,-6.38011 3.61606,-9.55551c0.76237,-2.31939 1.49782,-4.6474 2.21311,-6.98119c2.23241,-7.19856 4.49904,-14.38557 6.79741,-21.56412c0.32074,-1.00892 0.64149,-2.01782 0.97193,-3.0573c1.55913,-4.8622 3.24971,-9.58929 5.19316,-14.31811c0.86588,-2.68207 1.70785,-5.37164 2.52927,-8.06715c1.15227,-3.78119 2.29197,-7.49085 3.79885,-11.15051c1.52228,-3.77298 2.60745,-7.58891 3.70992,-11.49958c2.54218,-8.83791 5.21861,-17.44346 8.85244,-25.90797c3.89015,-9.37489 7.66684,-20.08967 7.66684,-30.25183c0.83466,0 1.66932,0 2.52927,0c0.4695,-2.38059 0.4695,-2.38059 0.94848,-4.80926c0.98578,-4.40875 2.32963,-8.40652 4.11006,-12.56614c2.09737,-4.90952 3.4541,-9.63144 4.50526,-14.84473c0.74739,-3.41855 1.95702,-6.66356 3.08255,-9.97728c0,-1.22869 0,-2.45738 0,-3.7233c0.83466,0 1.66932,0 2.52927,0c0.32115,-1.21429 0.6423,-2.42859 0.97317,-3.67966c3.95118,-14.80541 3.95118,-14.80541 6.21943,-21.06478c3.94345,-11.52467 2.27475,-19.52792 -0.86944,-31.10508c-0.51206,-1.96306 -1.02243,-3.92654 -1.5314,-5.89037c-0.54206,-2.07045 -1.08546,-4.14057 -1.63019,-6.21036c-0.25451,-0.96761 -0.50903,-1.93522 -0.77125,-2.93216c-1.56099,-5.81015 -3.36396,-11.48742 -5.33765,-17.17451c-1.08685,-3.26525 -1.89381,-6.56295 -2.6645,-9.91245c-1.18652,-4.8355 -2.60695,-9.30657 -4.5843,-13.88481c-2.19901,-5.1091 -3.37159,-9.99937 -4.35706,-15.44588c-0.80355,-3.89292 -2.08507,-7.52941 -3.4234,-11.27171c-1.09697,-3.21896 -2.00198,-6.45948 -2.88989,-9.73974c-1.35559,-4.97169 -2.87405,-9.83573 -4.56948,-14.70414c-1.51278,-4.44078 -2.93864,-8.90671 -4.362,-13.37576c-0.39827,-1.24594 -0.39827,-1.24594 -0.8046,-2.51705c-1.24926,-3.92951 -2.44899,-7.85785 -3.57716,-11.82348c-1.06578,-3.57051 -2.29035,-6.90244 -3.75933,-10.32634c-2.05216,-4.91471 -3.69312,-9.75651 -5.05854,-14.89321c-0.41733,0 -0.83466,0 -1.26463,0l0.00001,0.00002z" fill="#BA8B3A" id="svg_1" stroke="null"/>
  <path fill="none" id="svg_26" d="m269,225.8c0,1 -1,1 -1,3c0,0 1.12131,1.87868 -1,4c-0.70709,0.70711 -1,2 -1,5c0,3 1.42044,7.08582 2,9c2.08966,6.90169 4.79486,8.22021 8,11.00002c3.77725,3.276 8.08829,6.75238 14,9c7.11862,2.70651 15.18863,4.73849 26,7c9.28586,1.94241 20.13748,3.21655 28,5c6.16788,1.39905 11.69345,2.4588 13,3c2.77164,1.14804 4.76538,1.15225 4,3c-1.0824,2.61313 -6.51904,4.99411 -14,8c-7.65164,3.07446 -15.16824,4.58481 -23,8c-8.19867,3.5752 -15.14185,5.76141 -22,10c-6.13412,3.79111 -8.19028,6.88153 -10,10c-1.12234,1.93399 -2.49347,4.87857 -3,8c-0.32037,1.97418 0,4 0,4c0,1 2.38687,2.9176 5,4c2.77164,1.14804 7,0 12,0c4,0 7,0 11,-1l3,0"/>
 </g>

</svg>