<?xml version="1.0" encoding="UTF-8"?>
<svg version="1.1" xmlns="http://www.w3.org/2000/svg" width="1024" height="1024">
<path d="M0 0 C165.33 0 330.66 0 501 0 C502.80342487 4.50856218 503.24960674 6.47479535 503.24723816 11.10643005 C503.25143265 12.33631149 503.25562714 13.56619293 503.25994873 14.83334351 C503.25446397 16.19024737 503.24878095 17.54715044 503.24291992 18.90405273 C503.24399392 20.34112128 503.24593436 21.7781894 503.24867249 23.21525574 C503.2535299 27.13226329 503.2458343 31.04915714 503.23571944 34.966151 C503.22685772 39.13051368 503.22869858 43.29487358 503.2290802 47.45924377 C503.22814108 54.51345672 503.21945792 61.56762695 503.20581055 68.62182617 C503.19210245 75.73023326 503.1847809 82.83860098 503.18530273 89.94702148 C503.18755653 124.96216689 503.12131713 159.97462336 502.58199143 194.98623395 C502.5509577 197.02357267 502.52149449 199.06092939 502.49230003 201.09829521 C502.43734114 204.80141541 502.3751849 208.50432609 502.30981445 212.20727539 C502.29369173 213.29907419 502.27756901 214.39087299 502.26095772 215.51575661 C502.24161612 216.49705732 502.22227451 217.47835804 502.2023468 218.48939514 C502.17987869 219.76918542 502.17987869 219.76918542 502.15695667 221.07483006 C502 223 502 223 501 224 C498.66702567 224.04092937 496.33294775 224.04241723 494 224 C492.64525185 221.2905037 492.80228692 219.06168504 492.71875 216.03125 C492.68136719 214.81953125 492.64398437 213.6078125 492.60546875 212.359375 C492.57066406 211.08578125 492.53585937 209.8121875 492.5 208.5 C492.97835155 194.92137384 492.97835155 194.92137384 490 182 C489.82805801 180.66866235 489.70343448 179.33100291 489.60546875 177.9921875 C488.76781292 167.69034712 487.37690441 158.03770883 484.57080078 148.07763672 C483.95672349 145.84247941 483.39451611 143.59826594 482.83984375 141.34765625 C478.99273432 125.86996934 473.97435088 111.85225078 466 98 C465.63003906 97.32582031 465.26007812 96.65164063 464.87890625 95.95703125 C462.56631992 91.76366932 459.90276187 87.84530853 457.171875 83.91796875 C456 82 456 82 456 80 C455.01 79.67 454.02 79.34 453 79 C451.7109375 77.46875 451.7109375 77.46875 450.375 75.5 C447.26147606 71.14421145 443.63769428 67.55781603 439.7578125 63.8828125 C438 62 438 62 438 60 C437.27039063 59.75636719 436.54078125 59.51273437 435.7890625 59.26171875 C432.66382808 57.84792223 430.82904509 56.19678127 428.375 53.8125 C408.66690495 35.69144042 381.53095906 26.39814957 356 20 C354.86820313 19.71382812 353.73640625 19.42765625 352.5703125 19.1328125 C333.65197726 14.73214459 314.35990654 13.46541946 295 13 C296.36685662 18.76172577 298.02805196 24.3342079 299.9375 29.9375 C300.44661458 31.44661458 300.95572917 32.95572917 301.46484375 34.46484375 C302.23288294 36.73521747 303.00179325 39.00526777 303.77416992 41.27416992 C305.46929085 46.29352418 306.99052305 51.34182974 308.4375 56.4375 C310.04332165 62.01235929 311.85446235 67.359994 314.109375 72.7109375 C315.38762824 75.99627257 316.21028459 79.36441335 317.09375 82.7734375 C318.21735733 86.77386705 319.53910056 90.69130925 320.875 94.625 C324.15632644 104.31301691 327.03315807 114.09767153 329.8359375 123.93359375 C331.01416854 127.99405663 332.32585817 131.90208223 333.9375 135.8125 C336.3777727 141.7508062 338.16524934 147.85322833 340 154 C340.68618596 156.20874199 341.37367112 158.41708081 342.0625 160.625 C343.30783943 164.64691333 344.44957208 168.67320409 345.5 172.75 C346.62435733 176.97856125 348.17800562 180.74703472 350.03125 184.69921875 C351.45688899 188.08511134 352.30984099 191.57242171 353.22265625 195.125 C354.01826246 198.06754358 354.95184268 200.92839766 355.9375 203.8125 C357.4400021 208.21717345 358.76069307 212.63919492 360 217.125 C361.11772924 221.11751146 362.30711716 224.93922566 363.9375 228.75 C366.7995484 235.53746657 368.50539041 242.71592088 370.37744141 249.82519531 C371.16631836 252.58100549 372.08054288 255.28504745 373 258 C373.32661621 258.969375 373.65323242 259.93875 373.98974609 260.9375 C374.50142334 262.4534375 374.50142334 262.4534375 375.0234375 264 C378.61871272 274.68962591 382.19989172 285.33857472 385.17578125 296.21875 C386.21935516 299.7401937 387.58600437 303.07117453 389 306.45703125 C391.90840022 313.85300213 393.8978198 321.61188886 396.0625 329.25 C398.5427779 337.97904006 401.50292208 346.46343064 404.62109375 354.984375 C405.77373331 358.24745094 406.78765849 361.54420866 407.79296875 364.85546875 C410.08237224 372.36144545 412.5826661 379.79044348 415.08840942 387.22613525 C419.40754516 400.0550157 423.62609567 412.8931129 427.390625 425.89770508 C428.10032775 428.34612272 428.8138286 430.79325864 429.53515625 433.23828125 C429.76984619 434.03790283 430.00453613 434.83752441 430.24633789 435.66137695 C431.00740701 438.02298403 431.90387391 440.28011911 432.875 442.5625 C435.3558814 448.56984501 437.05209953 454.7867505 438.84765625 461.0234375 C440.77094934 467.70304525 443.07697286 474.21370753 445.4375 480.75 C447.44866835 486.35125393 449.25808097 491.98414226 450.98046875 497.6796875 C452.64400094 503.09732107 454.43959027 508.46867793 456.26416016 513.83398438 C456.787166 515.37350258 457.30738311 516.91396942 457.82568359 518.45507812 C462.53690949 532.59818804 462.53690949 532.59818804 469 546 C469.45632813 546.81984375 469.91265625 547.6396875 470.3828125 548.484375 C471.24115818 550.02449239 472.10721427 551.56036412 472.984375 553.08984375 C474 555 474 555 475 558 C475.99 558.33 476.98 558.66 478 559 C478.53625 559.721875 479.0725 560.44375 479.625 561.1875 C489.70470579 573.1239937 509.02922521 578.76360783 524.23339844 580.21289062 C527.69627605 580.44061164 531.13851075 580.5691849 534.609375 580.62890625 C538.23324464 581.02552793 540.12706158 581.79580888 543 584 C543.8125 586.1875 543.8125 586.1875 544 588 C540.44700643 590.36866238 538.89863105 590.27031013 534.67944336 590.31884766 C534.02971117 590.32888478 533.37997898 590.33892191 532.71055794 590.34926319 C530.50366157 590.38059012 528.29689641 590.39738972 526.08984375 590.4140625 C524.47610169 590.43308366 522.86236775 590.45280468 521.24864197 590.47315979 C516.76163939 590.52643725 512.27460951 590.56565146 507.78743744 590.60149765 C504.93876746 590.62498955 502.09014703 590.65178917 499.24151611 590.67959595 C461.14126835 591.04734501 423.03834792 591.13415657 384.93652946 591.17793798 C379.43789017 591.18457396 373.93927132 591.19575085 368.44064331 591.20855713 C361.66296344 591.22406377 354.88532398 591.23173596 348.1076259 591.22985047 C344.60063511 591.22898683 341.09372076 591.23122446 337.58674431 591.24185371 C333.74122893 591.25329852 329.89582279 591.24888433 326.05029297 591.24291992 C324.92469939 591.24854258 323.79910582 591.25416523 322.63940334 591.25995827 C317.02878555 591.23735568 312.29575116 590.89866055 307 589 C307.0625 586.6875 307.0625 586.6875 308 584 C312.93167616 581.42150942 317.1040014 580.55695908 322.6875 580.0625 C334.08903566 578.8621989 345.31327163 576.11019659 353 567 C355.95837089 558.61170786 352.89390291 548.74533194 349.97265625 540.77734375 C349.09778044 538.2792044 348.49896831 535.90623616 348 533.3125 C347.19170388 529.30710403 345.67348388 525.92867721 343.9375 522.24609375 C343.00320217 520.00767186 342.46762996 517.9382272 342 515.5625 C341.3614253 512.33075676 340.46254869 509.4752654 339.1875 506.4375 C336.76541447 500.65896635 334.9745363 494.72045568 333.1484375 488.734375 C332.14502727 485.47158527 331.08197698 482.23724036 330 479 C329.34844047 476.89759941 328.70274714 474.79337313 328.0625 472.6875 C325.7434092 465.13340276 323.2498157 457.68108335 320.5625 450.25 C317.84744763 442.68372792 315.45254073 435.03987618 313.2265625 427.31640625 C311.74558507 422.21260768 309.98160654 417.33574324 307.96875 412.41796875 C305.11771277 405.3018718 303.12037378 397.94072268 301.04296875 390.5703125 C299.76693223 386.20215751 298.33099484 381.90055436 296.86328125 377.59375 C296.20069844 375.60300347 295.61455065 373.58668572 295.0625 371.5625 C294.09413361 368.31562445 292.93950716 365.27057078 291.6875 362.125 C289.08073105 355.46925561 287.06451888 348.71555797 285.11328125 341.84765625 C284.16803087 338.53114522 283.1121245 335.26491168 282 332 C281.69320313 331.05640625 281.38640625 330.1128125 281.0703125 329.140625 C279.54038195 324.46232498 277.9775515 319.84814829 276.0625 315.3125 C273.90471306 310.07457799 272.40903249 304.68783523 270.85791016 299.24829102 C269.48633947 294.49523458 267.86692207 289.96151022 265.94921875 285.3984375 C264.48049882 281.68735093 263.39892139 277.87198865 262.25390625 274.05078125 C260.67050478 268.85353026 258.91722657 263.71244205 257.1875 258.5625 C254.49178565 250.5156667 251.82999969 242.45974949 249.25 234.375 C248.95907471 233.46403564 248.66814941 232.55307129 248.3684082 231.61450195 C246.75520139 226.518521 245.26813172 221.41015991 243.875 216.25 C242.26204261 210.42932769 239.95607583 205.25793816 237 200 C233.13757147 207.44544733 231.17834891 215.74477549 228.83886719 223.76708984 C227.07511626 229.79656416 225.13199767 235.74193948 223.0703125 241.67578125 C221.15572741 247.27853995 219.46944376 252.8899174 218 258.625 C216.4261019 264.66237475 214.41717148 270.26274474 212 276 C209.42650584 282.54541535 207.41778787 289.05005702 205.77734375 295.88671875 C204.04403534 302.82866248 202.15437771 309.77949786 199.0625 316.25 C195.81974871 323.15680492 194.06498486 330.67735867 192 338 C190.56528271 343.04807936 189.06353355 347.95727907 187.0625 352.8125 C183.70911683 360.98557456 181.41512351 369.49654152 179.0625 378 C177.76144814 382.61235638 176.26752993 387.04604079 174.5 391.5 C171.45882295 399.16824398 169.27678017 407.02829539 167.2265625 415.01171875 C166.13567761 419.21690404 165.02189867 423.14730114 163.125 427.0625 C160.65646783 432.2822207 159.34126886 437.78490176 157.8581543 443.34277344 C156.53202269 448.25195676 154.97003277 452.89770562 152.96875 457.578125 C151.35784851 461.60537872 150.1773796 465.76165683 148.93359375 469.9140625 C148.16865773 472.4425121 147.35878524 474.94005968 146.5 477.4375 C145.22995436 481.17252669 144.17324139 484.94698022 143.125 488.75 C141.81578718 493.41719379 140.31715372 497.88228252 138.5 502.375 C136.54931029 507.2606724 135.14105657 512.08222536 133.9375 517.1875 C132.70830479 522.39178337 131.22591212 527.26363646 129.1484375 532.19140625 C121.57439992 550.39684841 121.57439992 550.39684841 123.1875 569.5625 C127.03495936 574.73666949 131.07232781 576.63037069 137.25 578.1875 C137.91169189 578.35693115 138.57338379 578.5263623 139.25512695 578.70092773 C142.89412713 579.60101023 146.45396172 580.25188949 150.1875 580.5625 C155.69553975 581.19457014 155.69553975 581.19457014 158 584 C158.25 586.6875 158.25 586.6875 158 589 C154.22034558 590.25988481 150.6771041 590.16015972 146.73843384 590.17167664 C145.88593595 590.17802574 145.03343806 590.18437485 144.1551069 590.19091636 C141.28782169 590.21101695 138.4205481 590.22403204 135.55322266 590.23706055 C133.50180311 590.24991008 131.45038607 590.26316438 129.39897156 590.27679443 C123.81843342 590.31244486 118.23787919 590.34165659 112.6572957 590.36918616 C109.17286413 590.38667457 105.68844297 590.40555272 102.20402145 590.42493629 C90.05400478 590.49250994 77.90397406 590.55492015 65.75390625 590.61254883 C54.41869588 590.66644667 43.08358723 590.7315465 31.74846804 590.80188721 C22.02445066 590.86174011 12.30041184 590.91381407 2.5763191 590.95981437 C-3.23485992 590.9874361 -9.04598026 591.01822927 -14.85709763 591.05682945 C-20.32186276 591.09285838 -25.7865896 591.11922296 -31.25144005 591.1381073 C-33.25860708 591.14669252 -35.26576268 591.15874468 -37.27288628 591.17449379 C-40.01013524 591.19543418 -42.74714917 591.20393434 -45.48446655 591.20927429 C-46.28106418 591.2183088 -47.07766181 591.22734331 -47.89839876 591.2366516 C-52.04512983 591.23036842 -55.2718515 590.86981635 -59 589 C-58.64113993 586.39826448 -58.25511463 585.23802843 -56.30859375 583.421875 C-53.54747673 581.72128855 -51.52830567 581.42896185 -48.3125 581.0625 C-29.38558787 578.42549202 -12.77113252 573.5665688 -0.3125 557.875 C5.14232607 549.59871217 8.2452599 539.71330226 11.00390625 530.28125 C12.05856351 526.80708491 13.2583911 523.41159407 14.5 520 C17.20192949 512.54068546 19.52250289 504.99214934 21.7734375 497.38671875 C24.49116259 488.22535514 27.45760736 479.21747131 31.05859375 470.36328125 C33.20275094 464.98064597 34.92403285 459.71066709 35.9375 454 C36.55037248 450.70957807 37.36121766 447.95036213 38.8125 444.9375 C42.14883939 437.9878421 43.9270896 430.39961047 46 423 C46.66 423 47.32 423 48 423 C47.94328125 422.02289062 47.8865625 421.04578125 47.828125 420.0390625 C47.83270895 415.47574411 49.21367094 411.62874543 50.75 407.375 C51.30332089 405.7842841 51.85539613 404.19313439 52.40625 402.6015625 C52.81423828 401.43415527 52.81423828 401.43415527 53.23046875 400.24316406 C54.64243554 396.1273167 55.88430887 391.96255479 57.140625 387.796875 C58.04679601 384.84770025 59.02437903 381.92686291 60 379 C60.67257191 376.83515915 61.33914057 374.668445 62 372.5 C63.47472522 367.66105787 65.03021994 362.85875552 66.65527344 358.06835938 C69.30532235 350.25271443 71.92651036 342.45643868 74.125 334.5 C75.45685581 329.70091627 77.07799208 325.20057359 79 320.61328125 C80.62775336 316.35950392 81.78040484 311.97976488 82.99609375 307.59375 C85.88124299 297.26558931 88.93825039 286.90733024 93.0625 277 C94.35427275 273.84125002 95.33435251 270.84590952 96 267.5 C96.63750897 264.30691157 97.54154989 261.49761939 98.8125 258.5 C102.34503977 250.07218039 104.55417101 241.14317793 107.0234375 232.359375 C107.94479594 229.18990196 108.94521087 226.06478497 110 222.9375 C110.33 221.95652344 110.66 220.97554687 111 219.96484375 C111.66666667 217.98828125 112.33333333 216.01171875 113 214.03515625 C114.04321309 210.86884152 115.02814383 207.68890307 116 204.5 C116.96841374 201.32239242 117.94827368 198.15497689 119 195.00390625 C120.42079585 190.73596873 121.7014751 186.42752985 123 182.12109375 C123.88823108 179.34884127 124.91827658 176.70008307 126 174 C126.6865527 171.88134127 127.35215198 169.75581261 128 167.625 C128.350625 166.47386719 128.70125 165.32273437 129.0625 164.13671875 C129.7281753 161.90948016 130.37176489 159.67558758 131 157.4375 C132.80268683 151.24076402 134.93774623 145.14941644 137 139.03515625 C138.04321309 135.86884152 139.02814383 132.68890307 140 129.5 C140.97048094 126.3156094 141.95262124 123.14176901 143.0078125 119.984375 C144.02578252 116.92244943 144.95343633 113.84218886 145.875 110.75 C147.09626476 106.7514887 148.39751673 102.86110142 150 99 C153.17549403 91.29694612 155.4204411 83.3083871 157.50024414 75.24902344 C159.22067466 68.58246025 161.28509942 62.31974781 164 56 C165.78775242 51.70774649 167.12454018 47.65042108 167.9375 43.0625 C168.55459493 39.69652763 169.38753413 36.89161222 170.875 33.8125 C173.88976245 27.53363385 175.33248394 20.73215262 177 14 C142.49309155 19.02267223 111.47455977 27.74097255 82.0546875 47.06640625 C79 49 79 49 76 50 C76 50.66 76 51.32 76 52 C74.67092438 53.13920767 73.28242489 54.20913915 71.875 55.25 C67.1548851 58.93168962 62.86542715 62.90127183 58.625 67.125 C58.03058105 67.71055664 57.43616211 68.29611328 56.82373047 68.89941406 C54.14078518 71.59985517 51.75585996 74.21030357 49.7109375 77.4296875 C48.86402344 78.70199219 48.86402344 78.70199219 48 80 C47.34 80 46.68 80 46 80 C45.76539063 80.67546875 45.53078125 81.3509375 45.2890625 82.046875 C43.69135748 85.70707197 41.55398534 88.92051695 39.375 92.25 C24.23911132 115.95867102 17.10328451 143.00822582 13.34545898 170.68994141 C13.10285143 172.3122401 12.82293159 173.92918501 12.51586914 175.54052734 C10.73603615 185.02363565 10.36491678 194.50765687 9.9375 204.125 C9.82175699 206.6631648 9.70392204 209.20116983 9.58070374 211.73898315 C9.50487239 213.30576478 9.43344014 214.87276702 9.3669281 216.43997192 C9.1121837 221.7756326 9.1121837 221.7756326 8 224 C5.36 224 2.72 224 0 224 C-0.00423194 223.45563105 -0.00846388 222.91126209 -0.01282406 222.35039711 C-0.14443086 205.45219252 -0.28070353 188.55402722 -0.42068338 171.65588999 C-0.43187462 170.30435909 -0.44305015 168.95282806 -0.4542098 167.6012969 C-0.82970767 121.07959681 -0.82970767 121.07959681 -1.5625 74.5625 C-1.86830711 58.77921246 -2.1231744 42.99837342 -2.17623901 27.21188354 C-2.18361337 25.23133869 -2.19417313 23.25080252 -2.20828247 21.27029419 C-2.22589153 18.61109379 -2.23030741 15.95221983 -2.23046875 13.29296875 C-2.24117905 12.13216293 -2.24117905 12.13216293 -2.25210571 10.94790649 C-2.23353865 6.56207047 -1.687657 4.21914249 0 0 Z M187 30 C186.85304688 30.8353125 186.85304688 30.8353125 186.703125 31.6875 C185.772986 36.43441628 184.44986463 40.16298296 182.13671875 44.4453125 C180.26976284 48.64115156 179.13065867 53.05748376 177.92651367 57.48242188 C176.86386727 61.31809906 175.63945791 64.95898207 174.09375 68.62890625 C170.94521959 76.30234152 169.09334616 84.37916967 167 92.38867188 C165.36751473 98.4945494 163.63107322 104.21606254 160.91503906 109.92358398 C159.30725808 113.57197705 158.36748563 117.39758867 157.375 121.25 C156.13763166 125.96452999 154.86708173 130.48913053 153 135 C152.31531405 137.16104004 151.64952987 139.32813448 151 141.5 C150.08525448 144.55868032 149.17810432 147.55816429 147.984375 150.51953125 C146.85374506 153.36853923 146.05561075 156.23006054 145.25 159.1875 C143.70021998 164.7093088 141.97760825 170.13563754 140.125 175.5625 C137.53491219 183.15904808 135.27588722 190.8212458 133.18017578 198.56860352 C131.52434417 204.57084622 129.38763903 210.25334932 127 216 C124.30131121 222.93413093 122.13805556 229.92836418 120.140625 237.09375 C118.84533392 241.62491371 117.36738799 246.09303808 115.875 250.5625 C115.62121582 251.3244165 115.36743164 252.08633301 115.10595703 252.87133789 C114.12543287 255.78471951 113.13667174 258.66585577 111.97265625 261.51171875 C110.59947017 265.02464861 109.5998606 268.62599984 108.5625 272.25 C107.07274432 277.3856512 105.55530797 282.49306139 103.81640625 287.55078125 C102.4043166 291.7870502 101.10761873 296.0605515 99.80078125 300.33032227 C98.94252182 303.10846188 98.06444678 305.84216618 96.96484375 308.53515625 C95.72833312 311.69401538 94.94996598 314.89786292 94.125 318.1875 C92.77206527 323.4460165 91.12706213 328.4105891 89.00390625 333.40625 C87.32931766 337.7328135 86.17519669 342.20456351 84.9375 346.671875 C83.76499549 350.834266 82.40850044 354.91303971 81 359 C80.49842465 360.49947396 79.99845015 361.99948427 79.5 363.5 C78.770921 365.69479223 78.03870274 367.8876986 77.28515625 370.07421875 C74.61611702 377.8793551 72.45759405 385.83282911 70.21875 393.76953125 C68.99904541 397.97883784 67.62241148 402.01498202 65.9375 406.0625 C64.3366163 409.94343017 63.3137632 413.68118398 62.4921875 417.7890625 C61.81344296 420.83802606 60.80644679 423.73615298 59.78125 426.68359375 C58.96474618 429.10452756 58.26132504 431.54271847 57.5625 434 C56.60634489 437.2419634 55.49472669 440.25223439 54.0625 443.3125 C50.93243489 450.09629131 49.02253057 457.30315872 47.03515625 464.48828125 C45.09573394 471.49045256 42.87777518 478.22842113 40.1484375 484.96484375 C38.89718351 488.2717293 37.93334173 491.59029191 37 495 C34.5525395 503.7512138 31.94025902 512.40159547 29 521 C28.51931565 522.43699322 28.04005662 523.87446432 27.5625 525.3125 C26.63114656 528.11685151 25.68860732 530.91682487 24.73828125 533.71484375 C24.28384027 535.05989114 23.82941326 536.40494325 23.375 537.75 C23.15658447 538.38848877 22.93816895 539.02697754 22.71313477 539.68481445 C20.032462 547.64335521 18.01466677 557.04400032 20.75390625 565.26171875 C24.41082576 571.87285559 28.88881645 574.78749588 35.83203125 577.1171875 C53.16631147 581.94770209 74.58121771 582.46841794 90.9375 574.3125 C96.01394476 571.29346897 99.53774884 567.74692856 103 563 C103.44859375 562.44183594 103.8971875 561.88367188 104.359375 561.30859375 C108.91693694 555.02084626 110.44417904 547.29967245 112.46533203 539.921875 C113.9701897 534.51263319 115.8565635 529.3096898 118 524.125 C119.82354972 519.66666362 121.07997788 515.17738279 122.28515625 510.51953125 C123.2239956 507.21050731 124.64593904 504.15947558 126 501 C127.85514395 495.06353937 129.31301926 489.1828267 130 483 C130.66 483 131.32 483 132 483 C132.17015625 482.27369385 132.3403125 481.5473877 132.515625 480.79907227 C134.30865528 473.36407671 136.50806533 466.16504737 139 458.9375 C141.32519797 452.16732771 143.50813791 445.42464039 145.28295898 438.48706055 C146.04043705 435.85974387 147.00257734 433.39411018 148.0625 430.875 C149.37850557 427.7314848 150.34519506 424.78106152 151 421.4375 C151.63668861 418.20289446 152.59414746 415.48226807 154 412.5 C155.35181571 409.61810718 156.32355854 406.99733086 156.9375 403.875 C158.14720742 397.7843861 160.2665961 391.98513339 162.27490234 386.12255859 C163.55380527 382.37886094 164.80885174 378.62721685 166.0625 374.875 C166.44245117 373.73973877 166.44245117 373.73973877 166.83007812 372.58154297 C168.69569772 366.98104985 170.45449423 361.35663121 172.140625 355.69921875 C172.97714379 353.07178927 173.97498834 350.5585252 175 348 C175.60284456 346.13118187 176.18438527 344.2554209 176.75 342.375 C178.51526023 336.57485926 180.30757573 330.78402486 182.125 325 C182.37862305 324.18708496 182.63224609 323.37416992 182.89355469 322.53662109 C184.12642033 318.61897471 185.46322723 314.81018041 187 311 C187.68468595 308.83895996 188.35047013 306.67186552 189 304.5 C189.9111452 301.45335823 190.81236248 298.46434811 192.00390625 295.515625 C193.20764164 292.47560306 194.06573283 289.40096567 194.9375 286.25 C196.94770741 279.12897007 199.06408221 272.19517453 201.9375 265.375 C205.013611 257.82130658 208 249.18802437 208 241 C208.66 241 209.32 241 210 241 C210.37125 239.081875 210.37125 239.081875 210.75 237.125 C211.52949997 233.5727073 212.592135 230.35155922 214 227 C215.65848115 223.04421534 216.73129808 219.23960079 217.5625 215.0390625 C218.15349324 212.28461187 219.11000366 209.66998901 220 207 C220 206.01 220 205.02 220 204 C220.66 204 221.32 204 222 204 C222.25394531 203.02160156 222.50789062 202.04320312 222.76953125 201.03515625 C225.8938967 189.10589937 225.8938967 189.10589937 227.6875 184.0625 C230.80575283 174.77665318 229.486238 168.32813723 227 159 C226.5950882 157.41829229 226.19151697 155.83624099 225.7890625 154.25390625 C225.36042564 152.5856672 224.93074153 150.91769686 224.5 149.25 C224.29874512 148.47035889 224.09749023 147.69071777 223.89013672 146.88745117 C222.65580492 142.2059979 221.23011095 137.63162467 219.66943359 133.04931641 C218.8100088 130.41838581 218.17190969 127.76131436 217.5625 125.0625 C216.62426612 121.16636035 215.5010678 117.56386182 213.9375 113.875 C212.19865282 109.75841103 211.27144492 105.81813717 210.4921875 101.4296875 C209.85678562 98.29302107 208.84343929 95.36296522 207.78515625 92.34765625 C206.91773769 89.75403159 206.20210868 87.14301646 205.5 84.5 C204.42808354 80.49412663 203.22736941 76.57498827 201.88671875 72.65234375 C200.69050322 69.07423651 199.56300667 65.47588032 198.4375 61.875 C198.12256592 60.87110229 198.12256592 60.87110229 197.80126953 59.84692383 C196.81343194 56.6807677 195.86474803 53.51556137 194.97265625 50.3203125 C194.12989696 47.44342336 193.16158459 44.75876341 192 42 C190.37726574 38.04004401 189.07969093 34.13881525 188 30 C187.67 30 187.34 30 187 30 Z " fill="#BA8B3A" transform="translate(261,211)"/>
<path d="M0 0 C165.33 0 330.66 0 501 0 C502.80342487 4.50856218 503.24960674 6.47479535 503.24723816 11.10643005 C503.25143265 12.33631149 503.25562714 13.56619293 503.25994873 14.83334351 C503.25446397 16.19024737 503.24878095 17.54715044 503.24291992 18.90405273 C503.24399392 20.34112128 503.24593436 21.7781894 503.24867249 23.21525574 C503.2535299 27.13226329 503.2458343 31.04915714 503.23571944 34.966151 C503.22685772 39.13051368 503.22869858 43.29487358 503.2290802 47.45924377 C503.22814108 54.51345672 503.21945792 61.56762695 503.20581055 68.62182617 C503.19210245 75.73023326 503.1847809 82.83860098 503.18530273 89.94702148 C503.18755653 124.96216689 503.12131713 159.97462336 502.58199143 194.98623395 C502.5509577 197.02357267 502.52149449 199.06092939 502.49230003 201.09829521 C502.43734114 204.80141541 502.3751849 208.50432609 502.30981445 212.20727539 C502.29369173 213.29907419 502.27756901 214.39087299 502.26095772 215.51575661 C502.24161612 216.49705732 502.22227451 217.47835804 502.2023468 218.48939514 C502.17987869 219.76918542 502.17987869 219.76918542 502.15695667 221.07483006 C502 223 502 223 501 224 C498.66702567 224.04092937 496.33294775 224.04241723 494 224 C492.64525185 221.2905037 492.80228692 219.06168504 492.71875 216.03125 C492.68136719 214.81953125 492.64398437 213.6078125 492.60546875 212.359375 C492.57066406 211.08578125 492.53585937 209.8121875 492.5 208.5 C492.97835155 194.92137384 492.97835155 194.92137384 490 182 C489.82805801 180.66866235 489.70343448 179.33100291 489.60546875 177.9921875 C488.76781292 167.69034712 487.37690441 158.03770883 484.57080078 148.07763672 C483.95672349 145.84247941 483.39451611 143.59826594 482.83984375 141.34765625 C478.99273432 125.86996934 473.97435088 111.85225078 466 98 C465.63003906 97.32582031 465.26007812 96.65164063 464.87890625 95.95703125 C462.56631992 91.76366932 459.90276187 87.84530853 457.171875 83.91796875 C456 82 456 82 456 80 C455.01 79.67 454.02 79.34 453 79 C451.7109375 77.46875 451.7109375 77.46875 450.375 75.5 C447.26147606 71.14421145 443.63769428 67.55781603 439.7578125 63.8828125 C438 62 438 62 438 60 C437.27039063 59.75636719 436.54078125 59.51273437 435.7890625 59.26171875 C432.66382808 57.84792223 430.82904509 56.19678127 428.375 53.8125 C408.66690495 35.69144042 381.53095906 26.39814957 356 20 C354.86820313 19.71382812 353.73640625 19.42765625 352.5703125 19.1328125 C333.65197726 14.73214459 314.35990654 13.46541946 295 13 C296.36685662 18.76172577 298.02805196 24.3342079 299.9375 29.9375 C300.44661458 31.44661458 300.95572917 32.95572917 301.46484375 34.46484375 C302.23288294 36.73521747 303.00179325 39.00526777 303.77416992 41.27416992 C305.46929085 46.29352418 306.99052305 51.34182974 308.4375 56.4375 C310.04332165 62.01235929 311.85446235 67.359994 314.109375 72.7109375 C315.38762824 75.99627257 316.21028459 79.36441335 317.09375 82.7734375 C318.21735733 86.77386705 319.53910056 90.69130925 320.875 94.625 C324.15632644 104.31301691 327.03315807 114.09767153 329.8359375 123.93359375 C331.01416854 127.99405663 332.32585817 131.90208223 333.9375 135.8125 C336.3777727 141.7508062 338.16524934 147.85322833 340 154 C340.68618596 156.20874199 341.37367112 158.41708081 342.0625 160.625 C343.30783943 164.64691333 344.44957208 168.67320409 345.5 172.75 C346.62435733 176.97856125 348.17800562 180.74703472 350.03125 184.69921875 C351.45688899 188.08511134 352.30984099 191.57242171 353.22265625 195.125 C354.01826246 198.06754358 354.95184268 200.92839766 355.9375 203.8125 C357.4400021 208.21717345 358.76069307 212.63919492 360 217.125 C361.11772924 221.11751146 362.30711716 224.93922566 363.9375 228.75 C366.7995484 235.53746657 368.50539041 242.71592088 370.37744141 249.82519531 C371.16631836 252.58100549 372.08054288 255.28504745 373 258 C373.32661621 258.969375 373.65323242 259.93875 373.98974609 260.9375 C374.50142334 262.4534375 374.50142334 262.4534375 375.0234375 264 C378.61871272 274.68962591 382.19989172 285.33857472 385.17578125 296.21875 C386.21935516 299.7401937 387.58600437 303.07117453 389 306.45703125 C391.90840022 313.85300213 393.8978198 321.61188886 396.0625 329.25 C398.5427779 337.97904006 401.50292208 346.46343064 404.62109375 354.984375 C405.77373331 358.24745094 406.78765849 361.54420866 407.79296875 364.85546875 C410.08237224 372.36144545 412.5826661 379.79044348 415.08840942 387.22613525 C419.40754516 400.0550157 423.62609567 412.8931129 427.390625 425.89770508 C428.10032775 428.34612272 428.8138286 430.79325864 429.53515625 433.23828125 C429.76984619 434.03790283 430.00453613 434.83752441 430.24633789 435.66137695 C431.00740701 438.02298403 431.90387391 440.28011911 432.875 442.5625 C435.3558814 448.56984501 437.05209953 454.7867505 438.84765625 461.0234375 C440.77094934 467.70304525 443.07697286 474.21370753 445.4375 480.75 C447.44866835 486.35125393 449.25808097 491.98414226 450.98046875 497.6796875 C452.64400094 503.09732107 454.43959027 508.46867793 456.26416016 513.83398438 C456.787166 515.37350258 457.30738311 516.91396942 457.82568359 518.45507812 C462.53690949 532.59818804 462.53690949 532.59818804 469 546 C469.45632813 546.81984375 469.91265625 547.6396875 470.3828125 548.484375 C471.24115818 550.02449239 472.10721427 551.56036412 472.984375 553.08984375 C474 555 474 555 475 558 C475.99 558.33 476.98 558.66 478 559 C478.53625 559.721875 479.0725 560.44375 479.625 561.1875 C489.70470579 573.1239937 509.02922521 578.76360783 524.23339844 580.21289062 C527.69627605 580.44061164 531.13851075 580.5691849 534.609375 580.62890625 C538.23324464 581.02552793 540.12706158 581.79580888 543 584 C543.8125 586.1875 543.8125 586.1875 544 588 C540.44700643 590.36866238 538.89863105 590.27031013 534.67944336 590.31884766 C534.02971117 590.32888478 533.37997898 590.33892191 532.71055794 590.34926319 C530.50366157 590.38059012 528.29689641 590.39738972 526.08984375 590.4140625 C524.47610169 590.43308366 522.86236775 590.45280468 521.24864197 590.47315979 C516.76163939 590.52643725 512.27460951 590.56565146 507.78743744 590.60149765 C504.93876746 590.62498955 502.09014703 590.65178917 499.24151611 590.67959595 C461.14126835 591.04734501 423.03834792 591.13415657 384.93652946 591.17793798 C379.43789017 591.18457396 373.93927132 591.19575085 368.44064331 591.20855713 C361.66296344 591.22406377 354.88532398 591.23173596 348.1076259 591.22985047 C344.60063511 591.22898683 341.09372076 591.23122446 337.58674431 591.24185371 C333.74122893 591.25329852 329.89582279 591.24888433 326.05029297 591.24291992 C324.92469939 591.24854258 323.79910582 591.25416523 322.63940334 591.25995827 C317.02878555 591.23735568 312.29575116 590.89866055 307 589 C307.0625 586.6875 307.0625 586.6875 308 584 C312.93167616 581.42150942 317.1040014 580.55695908 322.6875 580.0625 C334.08903566 578.8621989 345.31327163 576.11019659 353 567 C355.95837089 558.61170786 352.89390291 548.74533194 349.97265625 540.77734375 C349.09778044 538.2792044 348.49896831 535.90623616 348 533.3125 C347.19170388 529.30710403 345.67348388 525.92867721 343.9375 522.24609375 C343.00320217 520.00767186 342.46762996 517.9382272 342 515.5625 C341.3614253 512.33075676 340.46254869 509.4752654 339.1875 506.4375 C336.76541447 500.65896635 334.9745363 494.72045568 333.1484375 488.734375 C332.14502727 485.47158527 331.08197698 482.23724036 330 479 C329.34844047 476.89759941 328.70274714 474.79337313 328.0625 472.6875 C325.7434092 465.13340276 323.2498157 457.68108335 320.5625 450.25 C317.84744763 442.68372792 315.45254073 435.03987618 313.2265625 427.31640625 C311.74558507 422.21260768 309.98160654 417.33574324 307.96875 412.41796875 C305.11771277 405.3018718 303.12037378 397.94072268 301.04296875 390.5703125 C299.76693223 386.20215751 298.33099484 381.90055436 296.86328125 377.59375 C296.20069844 375.60300347 295.61455065 373.58668572 295.0625 371.5625 C294.09413361 368.31562445 292.93950716 365.27057078 291.6875 362.125 C289.08073105 355.46925561 287.06451888 348.71555797 285.11328125 341.84765625 C284.16803087 338.53114522 283.1121245 335.26491168 282 332 C281.69320313 331.05640625 281.38640625 330.1128125 281.0703125 329.140625 C279.54038195 324.46232498 277.9775515 319.84814829 276.0625 315.3125 C273.90471306 310.07457799 272.40903249 304.68783523 270.85791016 299.24829102 C269.48633947 294.49523458 267.86692207 289.96151022 265.94921875 285.3984375 C264.48049882 281.68735093 263.39892139 277.87198865 262.25390625 274.05078125 C260.67050478 268.85353026 258.91722657 263.71244205 257.1875 258.5625 C254.49178565 250.5156667 251.82999969 242.45974949 249.25 234.375 C248.95907471 233.46403564 248.66814941 232.55307129 248.3684082 231.61450195 C246.75520139 226.518521 245.26813172 221.41015991 243.875 216.25 C242.26204261 210.42932769 239.95607583 205.25793816 237 200 C233.13757147 207.44544733 231.17834891 215.74477549 228.83886719 223.76708984 C227.07511626 229.79656416 225.13199767 235.74193948 223.0703125 241.67578125 C221.15572741 247.27853995 219.46944376 252.8899174 218 258.625 C216.4261019 264.66237475 214.41717148 270.26274474 212 276 C209.42650584 282.54541535 207.41778787 289.05005702 205.77734375 295.88671875 C204.04403534 302.82866248 202.15437771 309.77949786 199.0625 316.25 C195.81974871 323.15680492 194.06498486 330.67735867 192 338 C190.56528271 343.04807936 189.06353355 347.95727907 187.0625 352.8125 C183.70911683 360.98557456 181.41512351 369.49654152 179.0625 378 C177.76144814 382.61235638 176.26752993 387.04604079 174.5 391.5 C171.45882295 399.16824398 169.27678017 407.02829539 167.2265625 415.01171875 C166.13567761 419.21690404 165.02189867 423.14730114 163.125 427.0625 C160.65646783 432.2822207 159.34126886 437.78490176 157.8581543 443.34277344 C156.53202269 448.25195676 154.97003277 452.89770562 152.96875 457.578125 C151.35784851 461.60537872 150.1773796 465.76165683 148.93359375 469.9140625 C148.16865773 472.4425121 147.35878524 474.94005968 146.5 477.4375 C145.22995436 481.17252669 144.17324139 484.94698022 143.125 488.75 C141.81578718 493.41719379 140.31715372 497.88228252 138.5 502.375 C136.54931029 507.2606724 135.14105657 512.08222536 133.9375 517.1875 C132.70830479 522.39178337 131.22591212 527.26363646 129.1484375 532.19140625 C121.57439992 550.39684841 121.57439992 550.39684841 123.1875 569.5625 C127.03495936 574.73666949 131.07232781 576.63037069 137.25 578.1875 C137.91169189 578.35693115 138.57338379 578.5263623 139.25512695 578.70092773 C142.89412713 579.60101023 146.45396172 580.25188949 150.1875 580.5625 C155.69553975 581.19457014 155.69553975 581.19457014 158 584 C158.25 586.6875 158.25 586.6875 158 589 C154.22034558 590.25988481 150.6771041 590.16015972 146.73843384 590.17167664 C145.88593595 590.17802574 145.03343806 590.18437485 144.1551069 590.19091636 C141.28782169 590.21101695 138.4205481 590.22403204 135.55322266 590.23706055 C133.50180311 590.24991008 131.45038607 590.26316438 129.39897156 590.27679443 C123.81843342 590.31244486 118.23787919 590.34165659 112.6572957 590.36918616 C109.17286413 590.38667457 105.68844297 590.40555272 102.20402145 590.42493629 C90.05400478 590.49250994 77.90397406 590.55492015 65.75390625 590.61254883 C54.41869588 590.66644667 43.08358723 590.7315465 31.74846804 590.80188721 C22.02445066 590.86174011 12.30041184 590.91381407 2.5763191 590.95981437 C-3.23485992 590.9874361 -9.04598026 591.01822927 -14.85709763 591.05682945 C-20.32186276 591.09285838 -25.7865896 591.11922296 -31.25144005 591.1381073 C-33.25860708 591.14669252 -35.26576268 591.15874468 -37.27288628 591.17449379 C-40.01013524 591.19543418 -42.74714917 591.20393434 -45.48446655 591.20927429 C-46.28106418 591.2183088 -47.07766181 591.22734331 -47.89839876 591.2366516 C-52.04512983 591.23036842 -55.2718515 590.86981635 -59 589 C-58.64113993 586.39826448 -58.25511463 585.23802843 -56.30859375 583.421875 C-53.54747673 581.72128855 -51.52830567 581.42896185 -48.3125 581.0625 C-29.38558787 578.42549202 -12.77113252 573.5665688 -0.3125 557.875 C5.14232607 549.59871217 8.2452599 539.71330226 11.00390625 530.28125 C12.05856351 526.80708491 13.2583911 523.41159407 14.5 520 C17.20192949 512.54068546 19.52250289 504.99214934 21.7734375 497.38671875 C24.49116259 488.22535514 27.45760736 479.21747131 31.05859375 470.36328125 C33.20275094 464.98064597 34.92403285 459.71066709 35.9375 454 C36.55037248 450.70957807 37.36121766 447.95036213 38.8125 444.9375 C42.14883939 437.9878421 43.9270896 430.39961047 46 423 C46.66 423 47.32 423 48 423 C47.94328125 422.02289062 47.8865625 421.04578125 47.828125 420.0390625 C47.83270895 415.47574411 49.21367094 411.62874543 50.75 407.375 C51.30332089 405.7842841 51.85539613 404.19313439 52.40625 402.6015625 C52.81423828 401.43415527 52.81423828 401.43415527 53.23046875 400.24316406 C54.64243554 396.1273167 55.88430887 391.96255479 57.140625 387.796875 C58.04679601 384.84770025 59.02437903 381.92686291 60 379 C60.67257191 376.83515915 61.33914057 374.668445 62 372.5 C63.47472522 367.66105787 65.03021994 362.85875552 66.65527344 358.06835938 C69.30532235 350.25271443 71.92651036 342.45643868 74.125 334.5 C75.45685581 329.70091627 77.07799208 325.20057359 79 320.61328125 C80.62775336 316.35950392 81.78040484 311.97976488 82.99609375 307.59375 C85.88124299 297.26558931 88.93825039 286.90733024 93.0625 277 C94.35427275 273.84125002 95.33435251 270.84590952 96 267.5 C96.63750897 264.30691157 97.54154989 261.49761939 98.8125 258.5 C102.34503977 250.07218039 104.55417101 241.14317793 107.0234375 232.359375 C107.94479594 229.18990196 108.94521087 226.06478497 110 222.9375 C110.33 221.95652344 110.66 220.97554687 111 219.96484375 C111.66666667 217.98828125 112.33333333 216.01171875 113 214.03515625 C114.04321309 210.86884152 115.02814383 207.68890307 116 204.5 C116.96841374 201.32239242 117.94827368 198.15497689 119 195.00390625 C120.42079585 190.73596873 121.7014751 186.42752985 123 182.12109375 C123.88823108 179.34884127 124.91827658 176.70008307 126 174 C126.6865527 171.88134127 127.35215198 169.75581261 128 167.625 C128.350625 166.47386719 128.70125 165.32273437 129.0625 164.13671875 C129.7281753 161.90948016 130.37176489 159.67558758 131 157.4375 C132.80268683 151.24076402 134.93774623 145.14941644 137 139.03515625 C138.04321309 135.86884152 139.02814383 132.68890307 140 129.5 C140.97048094 126.3156094 141.95262124 123.14176901 143.0078125 119.984375 C144.02578252 116.92244943 144.95343633 113.84218886 145.875 110.75 C147.09626476 106.7514887 148.39751673 102.86110142 150 99 C153.17549403 91.29694612 155.4204411 83.3083871 157.50024414 75.24902344 C159.22067466 68.58246025 161.28509942 62.31974781 164 56 C165.78775242 51.70774649 167.12454018 47.65042108 167.9375 43.0625 C168.55459493 39.69652763 169.38753413 36.89161222 170.875 33.8125 C173.88976245 27.53363385 175.33248394 20.73215262 177 14 C142.49309155 19.02267223 111.47455977 27.74097255 82.0546875 47.06640625 C79 49 79 49 76 50 C76 50.66 76 51.32 76 52 C74.67092438 53.13920767 73.28242489 54.20913915 71.875 55.25 C67.1548851 58.93168962 62.86542715 62.90127183 58.625 67.125 C58.03058105 67.71055664 57.43616211 68.29611328 56.82373047 68.89941406 C54.14078518 71.59985517 51.75585996 74.21030357 49.7109375 77.4296875 C48.86402344 78.70199219 48.86402344 78.70199219 48 80 C47.34 80 46.68 80 46 80 C45.76539063 80.67546875 45.53078125 81.3509375 45.2890625 82.046875 C43.69135748 85.70707197 41.55398534 88.92051695 39.375 92.25 C24.23911132 115.95867102 17.10328451 143.00822582 13.34545898 170.68994141 C13.10285143 172.3122401 12.82293159 173.92918501 12.51586914 175.54052734 C10.73603615 185.02363565 10.36491678 194.50765687 9.9375 204.125 C9.82175699 206.6631648 9.70392204 209.20116983 9.58070374 211.73898315 C9.50487239 213.30576478 9.43344014 214.87276702 9.3669281 216.43997192 C9.1121837 221.7756326 9.1121837 221.7756326 8 224 C5.36 224 2.72 224 0 224 C-0.00423194 223.45563105 -0.00846388 222.91126209 -0.01282406 222.35039711 C-0.14443086 205.45219252 -0.28070353 188.55402722 -0.42068338 171.65588999 C-0.43187462 170.30435909 -0.44305015 168.95282806 -0.4542098 167.6012969 C-0.82970767 121.07959681 -0.82970767 121.07959681 -1.5625 74.5625 C-1.86830711 58.77921246 -2.1231744 42.99837342 -2.17623901 27.21188354 C-2.18361337 25.23133869 -2.19417313 23.25080252 -2.20828247 21.27029419 C-2.22589153 18.61109379 -2.23030741 15.95221983 -2.23046875 13.29296875 C-2.24117905 12.13216293 -2.24117905 12.13216293 -2.25210571 10.94790649 C-2.23353865 6.56207047 -1.687657 4.21914249 0 0 Z M3 4 C2.95333672 28.99914055 2.91803904 53.99827459 2.89637566 78.99744987 C2.88605087 90.60427173 2.87196763 102.21106657 2.84912109 113.81787109 C2.82922395 123.93107945 2.81629232 134.04426824 2.81182301 144.15749562 C2.80920938 149.51532926 2.8030414 154.87310694 2.78853989 160.2309227 C2.77501398 165.26887191 2.77076719 170.30674184 2.77378464 175.34470749 C2.77323223 177.19831268 2.76922518 179.0519204 2.76158905 180.90550995 C2.75170578 183.42724843 2.75400668 185.94868364 2.75949097 188.47042847 C2.75075244 189.58228305 2.75075244 189.58228305 2.74183738 190.71659935 C2.64114187 194.81015555 2.64114187 194.81015555 5 198 C7.33330214 194.50004679 7.59146966 191.62610745 8 187.5625 C8.08483643 186.80880127 8.16967285 186.05510254 8.25708008 185.27856445 C8.69277922 181.32727986 9.05523078 177.38015012 9.32421875 173.4140625 C10.93073693 151.40844599 16.88135097 130.05117471 26 110 C26.30486328 109.31083496 26.60972656 108.62166992 26.92382812 107.91162109 C35.28580498 89.18747531 47.45582652 73.33475106 62 59 C62.84949219 58.15179688 63.69898438 57.30359375 64.57421875 56.4296875 C81.91008146 40.00623861 104.09461733 27.53605824 127 21 C128.48194145 20.4871151 129.96148849 19.9672088 131.4375 19.4375 C147.65521428 14.05199488 163.99709148 11.7655338 181 11 C180.69707031 11.969375 180.39414062 12.93875 180.08203125 13.9375 C179.8823877 14.57647217 179.68274414 15.21544434 179.47705078 15.8737793 C179.0264628 17.31542909 178.57560791 18.75699548 178.12451172 20.19848633 C177.01055037 23.75939042 175.89939376 27.32104657 174.80078125 30.88671875 C172.43944087 38.51988881 169.97815451 46.11201187 167.4375 53.6875 C164.36703471 62.84902942 161.42656546 72.03378278 158.75390625 81.3203125 C158.53557129 82.07473633 158.31723633 82.82916016 158.09228516 83.60644531 C157.66965105 85.07069443 157.25105783 86.53611879 156.83740234 88.00292969 C155.89282475 91.28048132 154.86219136 94.31760584 153.5 97.45703125 C151.78301626 101.51251107 150.66810993 105.559461 149.5625 109.8125 C148.00139388 115.63685358 146.27196299 121.20634743 143.9140625 126.765625 C141.48652247 132.69961173 139.4885435 138.52155099 140 145 C139.34 145 138.68 145 138 145 C136.98555534 148.03703868 135.99109954 151.08027077 135 154.125 C134.71382812 154.9809375 134.42765625 155.836875 134.1328125 156.71875 C132.6582768 161.28278909 131.61741046 165.13792456 132 170 C131.34 170 130.68 170 130 170 C129.83709473 170.70237793 129.67418945 171.40475586 129.50634766 172.12841797 C127.54921384 180.28336426 125.06766228 188.18598927 122.375 196.125 C121.76398438 197.9503125 121.76398438 197.9503125 121.140625 199.8125 C118.15529337 208.68941327 118.15529337 208.68941327 117 211 C116.960008 212.99960012 116.95653201 215.00047242 117 217 C116.34 217 115.68 217 115 217 C114.72736328 218.051875 114.72736328 218.051875 114.44921875 219.125 C114.07216797 220.548125 114.07216797 220.548125 113.6875 222 C113.44386719 222.928125 113.20023438 223.85625 112.94921875 224.8125 C112.04028105 227.86473523 110.96376911 230.81716166 109.82739258 233.79101562 C108.28480956 237.90942553 106.89535022 242.07985725 105.5 246.25 C105.0354541 247.63662842 105.0354541 247.63662842 104.56152344 249.05126953 C102.63982636 254.86221249 100.99067883 260.6669064 99.61328125 266.6328125 C99.05176651 268.80018788 98.35619914 270.71347481 97.4375 272.75 C96.09952537 275.77498612 95.32309543 278.67609978 94.54681396 281.87930298 C93.71885606 285.09035459 92.63255846 288.19487962 91.5390625 291.32421875 C91.3072226 291.99234085 91.07538269 292.66046295 90.83651733 293.34883118 C90.10260123 295.46287116 89.36422921 297.57531261 88.625 299.6875 C85.22942671 309.40738505 81.94611848 319.13164122 79 329 C78.72865234 329.90387451 78.45730469 330.80774902 78.17773438 331.73901367 C77.18038319 335.06927479 76.18904367 338.40129032 75.20117188 341.734375 C73.77105723 346.52924213 72.25705469 351.2850606 70.65844727 356.02636719 C69.88763328 358.33680852 69.18195002 360.66188565 68.5 363 C66.70964262 369.01376453 64.74252947 374.94783481 62.6171875 380.8515625 C62.36235596 381.56304443 62.10752441 382.27452637 61.8449707 383.00756836 C61.3449941 384.4004829 60.84129091 385.79206911 60.33276367 387.18188477 C58.76387057 391.55404752 57.4290152 395.95537357 56.1796875 400.4296875 C53.75727077 409.02831589 50.91516384 417.47373795 48.0625 425.9375 C47.54463405 427.48102326 47.02705496 429.02464278 46.50976562 430.56835938 C45.4961888 433.59188746 44.4813576 436.61498924 43.46533203 439.63769531 C42.05523212 443.83405749 40.64852491 448.03153739 39.24609375 452.23046875 C38.85993896 453.38571045 38.47378418 454.54095215 38.07592773 455.73120117 C35.59266166 463.2756644 33.3219966 470.88222195 31.09375 478.50512695 C28.50447785 487.36240278 25.69764453 496.06879433 22.5625 504.75 C20.99288598 509.11984259 19.5156888 513.48865521 18.1875 517.9375 C4.11421497 564.05718106 4.11421497 564.05718106 -18 576 C-29.94532726 581.37685047 -42.06751653 584.2523671 -55 586 C-55 586.66 -55 587.32 -55 588 C13.64 588 82.28 588 153 588 C153 587.01 153 586.02 153 585 C152.12859375 584.91363281 151.2571875 584.82726562 150.359375 584.73828125 C141.83600481 583.73281875 134.71960284 581.72835308 127 578 C126.25234375 577.65710938 125.5046875 577.31421875 124.734375 576.9609375 C122.43380568 575.68629774 121.98922709 574.40240865 121 572 C120.66097656 571.43410156 120.32195312 570.86820313 119.97265625 570.28515625 C115.39959179 559.54120963 120.49708785 546.32468515 124 536 C124.63948084 534.06167899 125.27740641 532.12284441 125.9140625 530.18359375 C128.02089678 523.79683825 130.16362145 517.42240485 132.31011963 511.04888916 C134.36730947 504.93920095 136.41957938 498.82788229 138.46578979 492.71450806 C139.22474792 490.45033369 139.98740175 488.18742856 140.75024414 485.92456055 C143.65219114 477.2790394 146.35940831 468.59615613 148.88867188 459.83422852 C152.39953105 447.72130158 156.39261888 435.8093285 160.61425781 423.92602539 C162.95678337 417.26453305 165.03716286 410.56528021 166.99731445 403.78482056 C169.62056527 394.76808239 172.57173823 385.85877926 175.5 376.9375 C176.61598872 373.53040646 177.73042364 370.12280815 178.84375 366.71484375 C179.113582 365.88942581 179.383414 365.06400787 179.66142273 364.21357727 C181.58632454 358.30977128 183.45187076 352.38920918 185.29231262 346.45861816 C187.01330449 340.92453481 188.83226808 335.42773543 190.6875 329.9375 C194.06152007 319.88707159 197.33248989 309.80549968 200.57171631 299.71109009 C203.58470037 290.3258229 206.66980552 280.96784215 209.8125 271.625 C212.45797165 263.75727649 214.97691536 255.8817124 217.25024414 247.89892578 C218.74680695 242.70447208 220.45525062 237.59873197 222.25 232.5 C222.50869873 231.76249512 222.76739746 231.02499023 223.03393555 230.26513672 C224.87002089 225.12997911 224.87002089 225.12997911 226 224 C226.103125 222.865625 226.20625 221.73125 226.3125 220.5625 C226.69081772 217.03783994 227.63949623 214.24184309 229.0625 211 C231.04260416 206.38213977 231.36940658 202.98698883 231 198 C231.66 198 232.32 198 233 198 C233.50512244 196.39743892 234.00391627 194.79288208 234.5 193.1875 C234.7784375 192.29417969 235.056875 191.40085937 235.34375 190.48046875 C236.12788351 187.94426605 236.12788351 187.94426605 236 185 C236.66 185 237.32 185 238 185 C238.12503906 185.6909375 238.25007813 186.381875 238.37890625 187.09375 C239.06333277 190.29634957 239.96904861 193.37171927 240.9375 196.5 C241.27652344 197.6034375 241.61554688 198.706875 241.96484375 199.84375 C242.94450379 202.96006417 242.94450379 202.96006417 244.1328125 205.7578125 C245 208 245 208 244.9375 210.375 C245.00883098 213.37090099 246.00851034 215.42713133 247.20874023 218.13476562 C248.37486246 220.88366219 249.20693399 223.70302272 250.0625 226.5625 C252.95537887 236.07857982 256.15407199 245.4933767 259.34594727 254.91235352 C261.82138848 262.27011608 264.0936697 269.63452506 266.15209961 277.11865234 C266.98197242 280.14872279 266.98197242 280.14872279 268.5 283.5 C269.85678225 286.66582525 270.7615202 289.62868673 271.66015625 292.9453125 C274.37066068 302.55156802 277.67021166 311.94666204 280.9375 321.375 C284.42070136 331.44433389 287.89388496 341.5028116 291.02352905 351.6885376 C293.83612761 360.7892698 296.92307886 369.80110342 299.95620728 378.83007812 C305.81116194 396.26815558 311.55586458 413.73026939 317.02667236 431.29263306 C321.0773678 444.28044729 325.39920941 457.16126208 329.90551758 469.99804688 C332.26856608 476.7561801 334.48989843 483.52099826 336.46875 490.40234375 C339.0263085 499.29467304 342.01254162 508.01641978 345.0625 516.75 C358.89317143 556.46199954 358.89317143 556.46199954 355.28125 567.12109375 C350.78615176 575.54940296 341.7333437 579.33051464 333 582 C325.74034116 583.70889964 318.37098962 584.88463971 311 586 C311 586.66 311 587.32 311 588 C385.91 588 460.82 588 538 588 C538 587.34 538 586.68 538 586 C537.19892822 585.86424561 536.39785645 585.72849121 535.57250977 585.58862305 C531.90122008 584.96220543 528.23189122 584.32494029 524.5625 583.6875 C523.30244141 583.47416016 522.04238281 583.26082031 520.74414062 583.04101562 C502.481367 579.84622233 484.56440373 573.13279398 472.875 558 C462.38440182 542.63348999 456.12970067 524.79077304 450.921875 507.0546875 C449.15783301 501.20942971 447.16542832 495.44415837 445.1328125 489.6875 C444.80410156 488.75550781 444.47539063 487.82351563 444.13671875 486.86328125 C443.47292231 484.98466044 442.8063479 483.10701842 442.13671875 481.23046875 C440.14911537 475.57701322 438.35421733 469.8894946 436.69140625 464.1328125 C433.65316123 453.63062783 430.22610585 443.25996213 426.8125 432.875 C425.47811604 428.80372926 424.14533734 424.73193353 422.8125 420.66015625 C422.32140495 419.16113014 422.32140495 419.16113014 421.82038879 417.63182068 C419.84295267 411.59181402 417.88016706 405.54737135 415.9375 399.49609375 C415.70866623 398.78362488 415.47983246 398.07115601 415.24406433 397.33709717 C414.20834564 394.11026339 413.17540158 390.88258643 412.14575195 387.65380859 C410.53807786 382.63901247 408.89531397 377.66049988 407.04296875 372.73046875 C405.0973862 367.46693472 403.53261502 362.12489903 401.97593689 356.73744202 C399.57936004 348.47486581 396.92038596 340.30236447 394.25 332.125 C393.72456609 330.50931788 393.19925871 328.89359461 392.67407227 327.27783203 C390.25221369 319.83724761 387.81113883 312.40348228 385.32421875 304.984375 C384.91848633 303.77378418 384.51275391 302.56319336 384.09472656 301.31591797 C383.3513269 299.10548024 382.60484286 296.89607611 381.85449219 294.68798828 C379.93002385 288.98218973 378.20064227 283.27319921 376.70092773 277.44042969 C375.99871697 274.99553287 375.12094259 272.71391182 374.125 270.375 C371.38223343 263.79026651 369.56409788 256.93053358 367.60253906 250.08349609 C365.49461062 242.79457336 363.21215064 235.56201059 360.78125 228.375 C359.4756228 224.40589332 358.27419976 220.40485922 357.0625 216.40625 C355.76626935 212.25068705 354.38579542 208.12638028 353 204 C352.50872288 202.52747437 352.01783961 201.0548173 351.52734375 199.58203125 C351.14521729 198.43589355 351.14521729 198.43589355 350.75537109 197.26660156 C350.18629982 195.55904799 349.61764595 193.85135528 349.04931641 192.14355469 C347.42148553 187.25421558 345.78827495 182.36678183 344.14387512 177.48298645 C343.05203235 174.23940096 341.96286977 170.99491998 340.875 167.75 C340.65866913 167.10489471 340.44233826 166.45978943 340.2194519 165.7951355 C337.25390762 156.93613114 334.44092095 148.05595842 331.9375 139.0546875 C331.148639 136.4843154 330.20076263 134.38175962 329 132 C328.56611324 130.34283251 328.17508426 128.67421458 327.8125 127 C326.44175436 121.28740015 324.60439518 115.83449692 322.625 110.3125 C320.3893794 104.06316329 318.26922403 97.81760301 316.4375 91.4375 C314.65430004 85.2266116 312.80664621 79.04156991 310.875 72.875 C310.63322021 72.09310303 310.39144043 71.31120605 310.14233398 70.50561523 C309.05476509 67.05140106 307.89562139 63.75759789 306.4609375 60.42578125 C304.90892781 56.78644302 303.79995554 53.11642982 302.75 49.3125 C300.61716106 41.81076178 298.13936248 34.46563775 295.49902344 27.12817383 C293.47225541 21.47079179 291.67582421 15.77101497 290 10 C335.19603881 10.84161348 335.19603881 10.84161348 356 17 C357.5461931 17.41660163 359.09314597 17.83038819 360.640625 18.2421875 C384.43442276 24.66998073 406.11917963 33.31797497 426 48 C426.82628906 48.60070312 427.65257812 49.20140625 428.50390625 49.8203125 C466.43183074 78.68802438 485.62232769 123.60183129 492.04541016 169.75952148 C493.10705398 178.05063708 493.7108796 186.37511158 494.29711914 194.71118164 C494.87642444 202.86875859 495.74639916 210.91827542 497 219 C497.66 219 498.32 219 499 219 C499.02332542 191.11513762 499.04097741 163.23027669 499.05181217 135.34540653 C499.05697589 122.39896888 499.06402003 109.45253728 499.07543945 96.50610352 C499.08538398 85.22644927 499.09185287 73.94679941 499.09408849 62.6671409 C499.095396 56.69064094 499.09848433 50.71415351 499.10573006 44.73765755 C499.11248663 39.1194392 499.11461771 33.50123861 499.11310768 27.88301659 C499.11338417 25.81452462 499.11539144 23.7460321 499.11920547 21.67754364 C499.12413705 18.86651418 499.12300028 16.05555294 499.12025452 13.24452209 C499.12316736 12.414772 499.1260802 11.58502191 499.12908131 10.73012787 C499.46836766 7.0647567 499.46836766 7.0647567 498 4 C495.37352234 3.90109477 492.77332922 3.86823342 490.14635372 3.87695217 C489.3094549 3.87579833 488.47255608 3.87464448 487.6102967 3.87345567 C484.76938887 3.87078141 481.92853625 3.87531778 479.08763123 3.87974548 C477.04499185 3.87930995 475.00235254 3.87843536 472.95971352 3.87715632 C467.31818677 3.87490791 461.67667881 3.87893734 456.03515446 3.88393438 C449.96217734 3.88823376 443.88920136 3.88679282 437.81622314 3.8860321 C427.28490902 3.88550654 416.75360036 3.88862197 406.22228813 3.89426994 C395.17320158 3.90018046 384.12411749 3.90403457 373.07502937 3.90512276 C372.38885646 3.9051915 371.70268354 3.90526024 370.99571751 3.90533106 C367.51120423 3.90566938 364.02669096 3.90597077 360.54217768 3.90625793 C335.84069816 3.90836015 311.13922185 3.91510252 286.43774414 3.92456055 C262.43579119 3.93374015 238.43383912 3.94082613 214.43188477 3.94506836 C213.32274554 3.94526565 213.32274554 3.94526565 212.19119946 3.94546692 C204.76579613 3.94678541 197.34039278 3.94806123 189.91498943 3.94930578 C174.78765099 3.95184222 159.6603126 3.95466347 144.53297424 3.95765686 C143.48960465 3.9578628 143.48960465 3.9578628 142.42515689 3.95807289 C95.95010323 3.96727856 49.47505145 3.98314508 3 4 Z " fill="#FBF9F3" transform="translate(261,211)"/>
<path d="M0 0 C0.66 0 1.32 0 2 0 C2.15033691 0.62753174 2.30067383 1.25506348 2.45556641 1.90161133 C5.22151035 13.37829258 8.09502365 24.75938776 11.74853516 35.98803711 C13.62123855 41.75155864 15.34774804 47.54450357 17 53.375 C17.2467749 54.24487549 17.4935498 55.11475098 17.74780273 56.01098633 C18.75823421 59.58293576 19.76329612 63.15637469 20.76611328 66.73046875 C23.56544601 76.6978706 26.41271947 86.60552589 29.82421875 96.3828125 C31.3932889 101.20991869 32.68398514 106.09892353 34 111 C35.11563231 115.06511659 36.24392068 119.12665706 37.375 123.1875 C37.67736572 124.27667725 37.97973145 125.36585449 38.29125977 126.48803711 C40.37442059 133.93356116 42.63984469 141.28636478 45.15234375 148.59765625 C46.95212509 155.82166337 45.88796742 161.57703947 43.6875 168.5 C43.47416016 169.20769531 43.26082031 169.91539062 43.04101562 170.64453125 C41.74635558 174.87246585 40.27918462 179.01220538 38.70288086 183.14257812 C36.2746072 189.5594958 34.1775887 196.04970709 32.6328125 202.734375 C31.40668492 207.12421447 29.72153115 211.36814548 28.12109375 215.6328125 C27.07564415 218.77280398 26.44273078 221.72677696 26 225 C25.34 225 24.68 225 24 225 C23.6596875 226.9490625 23.6596875 226.9490625 23.3125 228.9375 C21.21382109 239.40112605 18.10566325 249.73511678 13.9609375 259.56640625 C12.41962513 263.46981115 11.27250916 267.48554025 10.0703125 271.50390625 C8.92797315 275.2352702 7.69213702 278.93042662 6.4375 282.625 C4.95880944 286.98774818 3.59506603 291.35209612 2.4375 295.8125 C1.2938025 300.17525619 -0.25228413 304.22120832 -1.9765625 308.3828125 C-3.47756154 312.22124515 -4.63050007 316.14451386 -5.81640625 320.08984375 C-7.24679206 324.84572042 -8.74654167 329.57929772 -10.25 334.3125 C-10.54608154 335.24505615 -10.84216309 336.1776123 -11.1472168 337.13842773 C-13.73528054 345.24897184 -16.4439838 353.31707225 -19.15917969 361.38574219 C-21.28314089 367.73698477 -23.23740772 374.11149375 -25.06469727 380.55322266 C-27.13019933 387.69795475 -29.64534035 394.68068469 -32.12451172 401.69018555 C-34.32896227 407.95951724 -36.26447825 414.21722637 -38.01171875 420.62890625 C-39.17110472 424.58364969 -40.53669713 428.43812474 -41.9375 432.3125 C-43.87023626 437.66844728 -45.63262652 443.01850763 -47.1875 448.5 C-49.58401679 456.9155813 -52.34628842 465.20496055 -55.125 473.5 C-55.35973022 474.20088745 -55.59446045 474.9017749 -55.83630371 475.62390137 C-57.05473351 479.25970253 -58.27551054 482.89471041 -59.49755859 486.52929688 C-61.74863923 493.22515722 -63.98991787 499.92428508 -66.22723389 506.62475586 C-66.91519587 508.68326201 -67.60519687 510.74107594 -68.29541016 512.79882812 C-70.66296447 519.87611181 -72.93581144 526.96851695 -75.03442383 534.13085938 C-79.13073093 546.30274333 -86.68023974 556.03962921 -98.203125 561.78515625 C-114.22915956 568.74618523 -136.32144928 569.94316519 -152.70703125 563.5546875 C-160.39800327 560.09725053 -166.4867532 556.3767719 -170.12109375 548.6015625 C-174.6540312 535.18406766 -167.2546094 519.30272424 -162.89746094 506.61914062 C-161.22298747 501.73237474 -159.57807704 496.83573378 -157.9375 491.9375 C-157.59243408 490.90786133 -157.24736816 489.87822266 -156.8918457 488.81738281 C-154.75490248 482.39581988 -152.7810547 475.95072029 -150.93334961 469.44116211 C-148.88956828 462.37382552 -146.40413046 455.46715836 -143.95019531 448.53393555 C-141.63971117 441.96287914 -139.5634943 435.36398657 -137.65673828 428.66601562 C-136.03504768 423.00050286 -134.06974439 417.51329292 -132 412 C-129.73716908 405.6544953 -127.86668216 399.19509959 -125.98120117 392.72998047 C-123.11263444 382.91787369 -120.09004228 373.15239764 -116.8125 363.46875 C-115.66816146 359.99172136 -114.58654381 356.49540224 -113.5 353 C-109.11105504 338.90389386 -109.11105504 338.90389386 -107.140625 333.75390625 C-104.92352659 327.92947968 -103.15291961 322.06400493 -101.5 316.0625 C-98.23452688 304.27969468 -94.3160336 292.7221289 -90.40234375 281.14282227 C-87.52192943 272.61377222 -84.73339186 264.06685644 -82.08032227 255.46411133 C-81.37984843 253.21800437 -80.64895492 250.98107189 -79.88256836 248.7565918 C-78.88069996 245.94044508 -78.88069996 245.94044508 -78.625 242.625 C-78.084004 239.48722321 -77.61978123 238.06751139 -76.1484375 235.41015625 C-73.73063153 230.71288994 -72.36442377 225.89904956 -71 220.8125 C-70.48402863 218.94895387 -69.96710315 217.08567165 -69.44921875 215.22265625 C-69.20220215 214.32691895 -68.95518555 213.43118164 -68.70068359 212.50830078 C-66.39617273 204.25863367 -63.75559931 196.10883364 -61 188 C-60.67 187.01 -60.34 186.02 -60 185 C-59.34 185 -58.68 185 -58 185 C-57.96261719 184.3709375 -57.92523438 183.741875 -57.88671875 183.09375 C-57.82097656 182.2378125 -57.75523437 181.381875 -57.6875 180.5 C-57.62949219 179.6646875 -57.57148438 178.829375 -57.51171875 177.96875 C-56.96385867 174.79032513 -55.97119913 172.09982592 -54.7956543 169.11035156 C-53.50158418 165.67802811 -52.55318735 162.15429849 -51.5625 158.625 C-50.00428956 153.20070216 -48.29476403 147.98102006 -46.09765625 142.77734375 C-43.68367944 136.66938108 -41.74926948 130.37799221 -39.70507812 124.13867188 C-38.45283457 120.34031539 -37.1547426 116.55727445 -35.859375 112.7734375 C-35.20009492 110.64576087 -34.63390548 108.48905727 -34.109375 106.32421875 C-32.86816688 101.26208316 -31.1789796 96.36836308 -29.5 91.4375 C-26.34097815 82.06524993 -23.26819009 72.66847511 -20.25 63.25 C-17.48351109 54.61842865 -14.67968857 46.00106224 -11.80078125 37.40625 C-11.53101471 36.60048523 -11.26124817 35.79472046 -10.98330688 34.96453857 C-9.66788557 31.03883039 -8.34804411 27.11467089 -7.02246094 23.19238281 C-4.43975794 15.52174957 -1.99001619 7.85038713 0 0 Z M0 13 C-0.14695312 13.8353125 -0.14695312 13.8353125 -0.296875 14.6875 C-1.227014 19.43441628 -2.55013537 23.16298296 -4.86328125 27.4453125 C-6.73023716 31.64115156 -7.86934133 36.05748376 -9.07348633 40.48242188 C-10.13613273 44.31809906 -11.36054209 47.95898207 -12.90625 51.62890625 C-16.05478041 59.30234152 -17.90665384 67.37916967 -20 75.38867188 C-21.63248527 81.4945494 -23.36892678 87.21606254 -26.08496094 92.92358398 C-27.69274192 96.57197705 -28.63251437 100.39758867 -29.625 104.25 C-30.86236834 108.96452999 -32.13291827 113.48913053 -34 118 C-34.68468595 120.16104004 -35.35047013 122.32813448 -36 124.5 C-36.91474552 127.55868032 -37.82189568 130.55816429 -39.015625 133.51953125 C-40.14625494 136.36853923 -40.94438925 139.23006054 -41.75 142.1875 C-43.29978002 147.7093088 -45.02239175 153.13563754 -46.875 158.5625 C-49.46508781 166.15904808 -51.72411278 173.8212458 -53.81982422 181.56860352 C-55.47565583 187.57084622 -57.61236097 193.25334932 -60 199 C-62.69868879 205.93413093 -64.86194444 212.92836418 -66.859375 220.09375 C-68.15466608 224.62491371 -69.63261201 229.09303808 -71.125 233.5625 C-71.37878418 234.3244165 -71.63256836 235.08633301 -71.89404297 235.87133789 C-72.87456713 238.78471951 -73.86332826 241.66585577 -75.02734375 244.51171875 C-76.40052983 248.02464861 -77.4001394 251.62599984 -78.4375 255.25 C-79.92725568 260.3856512 -81.44469203 265.49306139 -83.18359375 270.55078125 C-84.5956834 274.7870502 -85.89238127 279.0605515 -87.19921875 283.33032227 C-88.05747818 286.10846188 -88.93555322 288.84216618 -90.03515625 291.53515625 C-91.27166688 294.69401538 -92.05003402 297.89786292 -92.875 301.1875 C-94.22793473 306.4460165 -95.87293787 311.4105891 -97.99609375 316.40625 C-99.67068234 320.7328135 -100.82480331 325.20456351 -102.0625 329.671875 C-103.23500451 333.834266 -104.59149956 337.91303971 -106 342 C-106.50157535 343.49947396 -107.00154985 344.99948427 -107.5 346.5 C-108.229079 348.69479223 -108.96129726 350.8876986 -109.71484375 353.07421875 C-112.38388298 360.8793551 -114.54240595 368.83282911 -116.78125 376.76953125 C-118.00095459 380.97883784 -119.37758852 385.01498202 -121.0625 389.0625 C-122.6633837 392.94343017 -123.6862368 396.68118398 -124.5078125 400.7890625 C-125.18655704 403.83802606 -126.19355321 406.73615298 -127.21875 409.68359375 C-128.03525382 412.10452756 -128.73867496 414.54271847 -129.4375 417 C-130.39365511 420.2419634 -131.50527331 423.25223439 -132.9375 426.3125 C-136.06756511 433.09629131 -137.97746943 440.30315872 -139.96484375 447.48828125 C-141.90426606 454.49045256 -144.12222482 461.22842113 -146.8515625 467.96484375 C-148.10281649 471.2717293 -149.06665827 474.59029191 -150 478 C-152.4474605 486.7512138 -155.05974098 495.40159547 -158 504 C-158.48068435 505.43699322 -158.95994338 506.87446432 -159.4375 508.3125 C-160.36885344 511.11685151 -161.31139268 513.91682487 -162.26171875 516.71484375 C-162.71615973 518.05989114 -163.17058674 519.40494325 -163.625 520.75 C-163.84341553 521.38848877 -164.06183105 522.02697754 -164.28686523 522.68481445 C-166.967538 530.64335521 -168.98533323 540.04400032 -166.24609375 548.26171875 C-162.58917424 554.87285559 -158.11118355 557.78749588 -151.16796875 560.1171875 C-133.83368853 564.94770209 -112.41878229 565.46841794 -96.0625 557.3125 C-90.98605524 554.29346897 -87.46225116 550.74692856 -84 546 C-83.55140625 545.44183594 -83.1028125 544.88367188 -82.640625 544.30859375 C-78.08306306 538.02084626 -76.55582096 530.29967245 -74.53466797 522.921875 C-73.0298103 517.51263319 -71.1434365 512.3096898 -69 507.125 C-67.17645028 502.66666362 -65.92002212 498.17738279 -64.71484375 493.51953125 C-63.7760044 490.21050731 -62.35406096 487.15947558 -61 484 C-59.14485605 478.06353937 -57.68698074 472.1828267 -57 466 C-56.34 466 -55.68 466 -55 466 C-54.82984375 465.27369385 -54.6596875 464.5473877 -54.484375 463.79907227 C-52.69134472 456.36407671 -50.49193467 449.16504737 -48 441.9375 C-45.67480203 435.16732771 -43.49186209 428.42464039 -41.71704102 421.48706055 C-40.95956295 418.85974387 -39.99742266 416.39411018 -38.9375 413.875 C-37.62149443 410.7314848 -36.65480494 407.78106152 -36 404.4375 C-35.36331139 401.20289446 -34.40585254 398.48226807 -33 395.5 C-31.64818429 392.61810718 -30.67644146 389.99733086 -30.0625 386.875 C-28.85279258 380.7843861 -26.7334039 374.98513339 -24.72509766 369.12255859 C-23.44619473 365.37886094 -22.19114826 361.62721685 -20.9375 357.875 C-20.55754883 356.73973877 -20.55754883 356.73973877 -20.16992188 355.58154297 C-18.30430228 349.98104985 -16.54550577 344.35663121 -14.859375 338.69921875 C-14.02285621 336.07178927 -13.02501166 333.5585252 -12 331 C-11.39715544 329.13118187 -10.81561473 327.2554209 -10.25 325.375 C-8.48473977 319.57485926 -6.69242427 313.78402486 -4.875 308 C-4.62137695 307.18708496 -4.36775391 306.37416992 -4.10644531 305.53662109 C-2.87357967 301.61897471 -1.53677277 297.81018041 0 294 C0.68468595 291.83895996 1.35047013 289.67186552 2 287.5 C2.9111452 284.45335823 3.81236248 281.46434811 5.00390625 278.515625 C6.20764164 275.47560306 7.06573283 272.40096567 7.9375 269.25 C9.94770741 262.12897007 12.06408221 255.19517453 14.9375 248.375 C18.013611 240.82130658 21 232.18802437 21 224 C21.66 224 22.32 224 23 224 C23.37125 222.081875 23.37125 222.081875 23.75 220.125 C24.52949997 216.5727073 25.592135 213.35155922 27 210 C28.65848115 206.04421534 29.73129808 202.23960079 30.5625 198.0390625 C31.15349324 195.28461187 32.11000366 192.66998901 33 190 C33 189.01 33 188.02 33 187 C33.66 187 34.32 187 35 187 C35.25394531 186.02160156 35.50789062 185.04320312 35.76953125 184.03515625 C38.8938967 172.10589937 38.8938967 172.10589937 40.6875 167.0625 C43.80575283 157.77665318 42.486238 151.32813723 40 142 C39.5950882 140.41829229 39.19151697 138.83624099 38.7890625 137.25390625 C38.36042564 135.5856672 37.93074153 133.91769686 37.5 132.25 C37.29874512 131.47035889 37.09749023 130.69071777 36.89013672 129.88745117 C35.65580492 125.2059979 34.23011095 120.63162467 32.66943359 116.04931641 C31.8100088 113.41838581 31.17190969 110.76131436 30.5625 108.0625 C29.62426612 104.16636035 28.5010678 100.56386182 26.9375 96.875 C25.19865282 92.75841103 24.27144492 88.81813717 23.4921875 84.4296875 C22.85678562 81.29302107 21.84343929 78.36296522 20.78515625 75.34765625 C19.91773769 72.75403159 19.20210868 70.14301646 18.5 67.5 C17.42808354 63.49412663 16.22736941 59.57498827 14.88671875 55.65234375 C13.69050322 52.07423651 12.56300667 48.47588032 11.4375 44.875 C11.12256592 43.87110229 11.12256592 43.87110229 10.80126953 42.84692383 C9.81343194 39.6807677 8.86474803 36.51556137 7.97265625 33.3203125 C7.12989696 30.44342336 6.16158459 27.75876341 5 25 C3.37726574 21.04004401 2.07969093 17.13881525 1 13 C0.67 13 0.34 13 0 13 Z " fill="#FBF8F1" transform="translate(448,228)"/>
<path d="M0 0 C165.33 0 330.66 0 501 0 C502.80342487 4.50856218 503.24960674 6.47479535 503.24723816 11.10643005 C503.25143265 12.33631149 503.25562714 13.56619293 503.25994873 14.83334351 C503.25446397 16.19024737 503.24878095 17.54715044 503.24291992 18.90405273 C503.24399392 20.34112128 503.24593436 21.7781894 503.24867249 23.21525574 C503.2535299 27.13226329 503.2458343 31.04915714 503.23571944 34.966151 C503.22685772 39.13051368 503.22869858 43.29487358 503.2290802 47.45924377 C503.22814108 54.51345672 503.21945792 61.56762695 503.20581055 68.62182617 C503.19210245 75.73023326 503.1847809 82.83860098 503.18530273 89.94702148 C503.18755653 124.96216689 503.12131713 159.97462336 502.58199143 194.98623395 C502.5509577 197.02357267 502.52149449 199.06092939 502.49230003 201.09829521 C502.43734114 204.80141541 502.3751849 208.50432609 502.30981445 212.20727539 C502.29369173 213.29907419 502.27756901 214.39087299 502.26095772 215.51575661 C502.24161612 216.49705732 502.22227451 217.47835804 502.2023468 218.48939514 C502.18736806 219.34258866 502.17238932 220.19578218 502.15695667 221.07483006 C502 223 502 223 501 224 C498.66702567 224.04092937 496.33294775 224.04241723 494 224 C492.39048457 220.78096915 492.75765252 217.25161168 492.68359375 213.7109375 C492.6524221 212.48330185 492.6524221 212.48330185 492.62062073 211.23086548 C492.55515188 208.61233034 492.49625274 205.99369361 492.4375 203.375 C492.39431224 201.60155193 492.35069786 199.82811419 492.30664062 198.0546875 C492.19947324 193.70322954 492.09819831 189.35166923 492 185 C492.66 185 493.32 185 494 185 C494.08302368 185.83192871 494.08302368 185.83192871 494.16772461 186.68066406 C494.42128107 189.2040917 494.67934505 191.72703883 494.9375 194.25 C495.02451172 195.12269531 495.11152344 195.99539063 495.20117188 196.89453125 C495.28818359 197.73886719 495.37519531 198.58320313 495.46484375 199.453125 C495.543396 200.22817383 495.62194824 201.00322266 495.70288086 201.80175781 C495.95887234 204.00045017 495.95887234 204.00045017 496.52734375 206.109375 C497.17078723 208.6831489 497.09401675 211.10259268 497.0625 213.75 C497.05347656 214.73484375 497.04445313 215.7196875 497.03515625 216.734375 C497.01775391 217.85585938 497.01775391 217.85585938 497 219 C497.66 219 498.32 219 499 219 C498.505 113.07 498.505 113.07 498 5 C334.65 4.67 171.3 4.34 3 4 C-18.57894791 109.92146808 -18.57894791 109.92146808 5 197 C5.19335938 196.21753906 5.38671875 195.43507813 5.5859375 194.62890625 C5.84632813 193.61699219 6.10671875 192.60507812 6.375 191.5625 C6.63023437 190.55316406 6.88546875 189.54382813 7.1484375 188.50390625 C8 186 8 186 10 185 C10.10873008 194.3266247 10.00875394 203.61951456 9.5625 212.9375 C9.52326416 213.80729492 9.48402832 214.67708984 9.44360352 215.57324219 C9.12328099 221.75343802 9.12328099 221.75343802 8 224 C5.36 224 2.72 224 0 224 C-0.00423194 223.45563105 -0.00846388 222.91126209 -0.01282406 222.35039711 C-0.14443086 205.45219252 -0.28070353 188.55402722 -0.42068338 171.65588999 C-0.43187462 170.30435909 -0.44305015 168.95282806 -0.4542098 167.6012969 C-0.82970767 121.07959681 -0.82970767 121.07959681 -1.5625 74.5625 C-1.86830711 58.77921246 -2.1231744 42.99837342 -2.17623901 27.21188354 C-2.18361337 25.23133869 -2.19417313 23.25080252 -2.20828247 21.27029419 C-2.22589153 18.61109379 -2.23030741 15.95221983 -2.23046875 13.29296875 C-2.23760895 12.51909821 -2.24474915 11.74522766 -2.25210571 10.94790649 C-2.23353865 6.56207047 -1.687657 4.21914249 0 0 Z " fill="#FAF7F3" transform="translate(261,211)"/>
<path d="M0 0 C0.33 0 0.66 0 1 0 C1 44.88 1 89.76 1 136 C1.66 136 2.32 136 3 136 C4.21560416 144.81609935 4.05714261 153.59889689 3.9140625 162.47265625 C3.89225303 164.0478009 3.87080533 165.6229506 3.84970093 167.19810486 C3.80449909 170.47678039 3.75529833 173.75536375 3.703125 177.03393555 C3.63640828 181.24395535 3.57932621 185.45404193 3.52509499 189.66423893 C3.48238629 192.90607835 3.43493962 196.1478347 3.38599777 199.38958549 C3.36306442 200.94337388 3.34155929 202.49718401 3.32149124 204.05101204 C3.29284728 206.20997695 3.2579042 208.3687472 3.22119141 210.52758789 C3.20263092 211.7565126 3.18407043 212.98543732 3.16494751 214.25160217 C3 217 3 217 2 218 C-0.33297433 218.04092937 -2.66705225 218.04241723 -5 218 C-6.60951543 214.78096915 -6.24234748 211.25161168 -6.31640625 207.7109375 C-6.3475779 206.48330185 -6.3475779 206.48330185 -6.37937927 205.23086548 C-6.44484812 202.61233034 -6.50374726 199.99369361 -6.5625 197.375 C-6.60568776 195.60155193 -6.64930214 193.82811419 -6.69335938 192.0546875 C-6.80052676 187.70322954 -6.90180169 183.35166923 -7 179 C-6.34 179 -5.68 179 -5 179 C-4.91697632 179.83192871 -4.91697632 179.83192871 -4.83227539 180.68066406 C-4.57871893 183.2040917 -4.32065495 185.72703883 -4.0625 188.25 C-3.97548828 189.12269531 -3.88847656 189.99539063 -3.79882812 190.89453125 C-3.66831055 192.16103516 -3.66831055 192.16103516 -3.53515625 193.453125 C-3.456604 194.22817383 -3.37805176 195.00322266 -3.29711914 195.80175781 C-3.04112766 198.00045017 -3.04112766 198.00045017 -2.47265625 200.109375 C-1.82921277 202.6831489 -1.90598325 205.10259268 -1.9375 207.75 C-1.94652344 208.73484375 -1.95554687 209.7196875 -1.96484375 210.734375 C-1.97644531 211.48203125 -1.98804688 212.2296875 -2 213 C-1.34 213 -0.68 213 0 213 C0 142.71 0 72.42 0 0 Z " fill="#F0E5D2" transform="translate(760,217)"/>
<path d="M0 0 C6.86515862 -0.26404456 13.25846717 0.74158054 20 2 C20 2.66 20 3.32 20 4 C-54.91 4 -129.82 4 -207 4 C-207 3.34 -207 2.68 -207 2 C-138.69 1.67 -70.38 1.34 0 1 C0 0.67 0 0.34 0 0 Z " fill="#936E44" transform="translate(779,795)"/>
<path d="M0 0 C0.33 0 0.66 0 1 0 C1.00423194 0.98859481 1.00846388 1.97718962 1.01282406 2.99574184 C1.11586571 27.01360988 1.22459427 51.03144699 1.33933926 75.04926205 C1.39469565 86.66393448 1.44818154 98.27860998 1.49731445 109.89331055 C1.54012677 120.01275443 1.58639718 130.13217547 1.63687855 140.25158411 C1.66350335 145.61326641 1.68835693 150.97494411 1.70907402 156.33665276 C1.72860418 161.37706768 1.75273688 166.41743903 1.78049088 171.45781517 C1.78988057 173.31344057 1.79754889 175.16907555 1.80341911 177.02471542 C1.81164786 179.54675292 1.8259151 182.06868373 1.84178162 184.59068298 C1.84275972 185.33483221 1.84373783 186.07898145 1.84474558 186.84568065 C1.57708306 190.20883938 1.57708306 190.20883938 3 193 C3.99 192.01 3.99 192.01 5 191 C4.03644647 207.8929385 4.03644647 207.8929385 3 215 C2.34 215 1.68 215 1 215 C-0.16335117 210.83327475 -0.13572079 206.80594097 -0.12025452 202.50860596 C-0.12110894 201.64355871 -0.12196337 200.77851146 -0.12284368 199.88725066 C-0.12449302 196.98373209 -0.11898601 194.08027108 -0.11352539 191.17675781 C-0.11324338 189.09737652 -0.11340153 187.01799513 -0.1139679 184.93861389 C-0.11425531 179.28819582 -0.10836758 173.6377989 -0.10139394 167.98738575 C-0.09515113 162.08434468 -0.09455586 156.18130314 -0.09336853 150.27825928 C-0.09025796 139.09756693 -0.08204825 127.91688433 -0.07201904 116.73619628 C-0.06084941 104.00841469 -0.05534531 91.28063265 -0.05032361 78.55284739 C-0.03986542 52.36855951 -0.02227126 26.1842803 0 0 Z " fill="#E9DAB1" transform="translate(263,215)"/>
<path d="M0 0 C-0.33 0.66 -0.66 1.32 -1 2 C24.08 2.33 49.16 2.66 75 3 C75 3.33 75 3.66 75 4 C43.65 4 12.3 4 -20 4 C-20 3.34 -20 2.68 -20 2 C-17.23062417 1.47007619 -14.45996921 0.9507542 -11.6875 0.4375 C-10.90181641 0.28603516 -10.11613281 0.13457031 -9.30664062 -0.02148438 C-8.54931641 -0.16005859 -7.79199219 -0.29863281 -7.01171875 -0.44140625 C-6.31522217 -0.57232666 -5.61872559 -0.70324707 -4.90112305 -0.83813477 C-3 -1 -3 -1 0 0 Z " fill="#D9B97E" transform="translate(226,795)"/>
<path d="M0 0 C0.33 0 0.66 0 1 0 C1 20.13 1 40.26 1 61 C0.34 61 -0.32 61 -1 61 C-2.91025574 49.5896331 -3.22379488 38.55030268 -3 27 C-2.34 27.66 -1.68 28.32 -1 29 C-0.67 19.43 -0.34 9.86 0 0 Z " fill="#996827" transform="translate(759,369)"/>
<path d="M0 0 C1.61905653 4.0023882 0.25213322 7.24609664 -1.0625 11.125 C-1.39834106 12.15560547 -1.39834106 12.15560547 -1.7409668 13.20703125 C-2.48330726 15.47502515 -3.24114333 17.7374829 -4 20 C-4.55785121 21.68471066 -5.11513405 23.36960961 -5.671875 25.0546875 C-7.10247574 29.37391204 -8.54770288 33.68802506 -10 38 C-10.66 37.67 -11.32 37.34 -12 37 C-11.57452381 31.25607145 -10.23166757 26.85724823 -7.97265625 21.578125 C-6.99859582 18.99627809 -6.46236164 16.59085395 -6 13.875 C-5.14917005 9.02296973 -3.58529869 3.58529869 0 0 Z " fill="#FDFCF7" transform="translate(375,427)"/>
<path d="M0 0 C6.93 0.495 6.93 0.495 14 1 C14 1.66 14 2.32 14 3 C-10.42 3 -34.84 3 -60 3 C-60 2.67 -60 2.34 -60 2 C-40.2 1.67 -20.4 1.34 0 1 C0 0.67 0 0.34 0 0 Z " fill="#986A28" transform="translate(400,795)"/>
<path d="M0 0 C4.37547583 6.56321374 5.9262328 16.19318069 5 24 C2.5469566 31.96082011 -3.31044092 36.84195601 -10.3125 40.9375 C-13 42 -13 42 -16 42 C-16 41.34 -16 40.68 -16 40 C-15.19175781 39.63648438 -14.38351562 39.27296875 -13.55078125 38.8984375 C-7.38821124 35.99927911 -2.72960019 33.78731064 1 28 C3.28069481 21.15791558 2.1949586 13.8122672 0.4453125 6.94921875 C-0.09141921 4.59984049 -0.15487882 2.40062176 0 0 Z " fill="#956A37" transform="translate(615,751)"/>
<path d="M0 0 C7.26 0 14.52 0 22 0 C22 0.33 22 0.66 22 1 C24.31 1.33 26.62 1.66 29 2 C29 2.33 29 2.66 29 3 C19.76 3 10.52 3 1 3 C0.67 2.01 0.34 1.02 0 0 Z " fill="#AD7C2F" transform="translate(311,795)"/>
<path d="M0 0 C0.33 0 0.66 0 1 0 C0.03644647 16.8929385 0.03644647 16.8929385 -1 24 C-1.66 24 -2.32 24 -3 24 C-3 16.41 -3 8.82 -3 1 C-2.01 1.495 -2.01 1.495 -1 2 C-0.67 1.34 -0.34 0.68 0 0 Z " fill="#EFCC6D" transform="translate(267,406)"/>
<path d="M0 0 C0.33 0 0.66 0 1 0 C0.45484328 7.08703739 -1.60918605 13.32796106 -4 20 C-4.66 19.67 -5.32 19.34 -6 19 C-5.59652415 12.64525533 -4.78162319 4.78162319 0 0 Z " fill="#FDFCFB" transform="translate(417,618)"/>
<path d="M0 0 C0.33 0 0.66 0 1 0 C0.45484328 7.08703739 -1.60918605 13.32796106 -4 20 C-4.66 20 -5.32 20 -6 20 C-5.48914188 13.56318772 -4.27057103 8.04057576 -2 2 C-1.34 2 -0.68 2 0 2 C0 1.34 0 0.68 0 0 Z " fill="#FCFBF9" transform="translate(393,692)"/>
<path d="M0 0 C-0.33 0.66 -0.66 1.32 -1 2 C-0.34 2.33 0.32 2.66 1 3 C-5.93 3 -12.86 3 -20 3 C-16.51326763 0.67551175 -14.12861005 0.38448452 -10 -0.1875 C-8.7625 -0.36667969 -7.525 -0.54585937 -6.25 -0.73046875 C-3 -1 -3 -1 0 0 Z " fill="#DEB14E" transform="translate(226,795)"/>
<path d="M0 0 C6.86515862 -0.26404456 13.25846717 0.74158054 20 2 C20 2.33 20 2.66 20 3 C17.04112541 3.08069658 14.0844341 3.14034665 11.125 3.1875 C10.28324219 3.21263672 9.44148437 3.23777344 8.57421875 3.26367188 C7.76855469 3.27333984 6.96289062 3.28300781 6.1328125 3.29296875 C5.38918457 3.3086792 4.64555664 3.32438965 3.87939453 3.34057617 C2.94909424 3.17199097 2.94909424 3.17199097 2 3 C1.34 2.01 0.68 1.02 0 0 Z " fill="#79501E" transform="translate(779,795)"/>
<path d="M0 0 C0.66 0.33 1.32 0.66 2 1 C0.515 7.435 0.515 7.435 -1 14 C-3.51199906 8.97600188 -3.04056818 7.37626894 -2 2 C-1.34 1.34 -0.68 0.68 0 0 Z " fill="#FAF6EB" transform="translate(402,342)"/>
<path d="M0 0 C0.99 0.33 1.98 0.66 3 1 C4.52160014 4.6037898 5 7.05220686 5 11 C2 10 2 10 0.8125 7.75 C0.00061706 5.00208853 -0.16260121 2.84552111 0 0 Z " fill="#F7F2E7" transform="translate(456,260)"/>
<path d="M0 0 C-0.11458693 1.43836751 -0.24209116 2.87570966 -0.375 4.3125 C-0.44460938 5.11300781 -0.51421875 5.91351562 -0.5859375 6.73828125 C-1 9 -1 9 -3 12 C-4.35 4.63636364 -4.35 4.63636364 -2.625 1.5 C-1 0 -1 0 0 0 Z " fill="#F6F3EB" transform="translate(412,637)"/>
<path d="M0 0 C0.33 0 0.66 0 1 0 C0.88541307 1.43836751 0.75790884 2.87570966 0.625 4.3125 C0.55539062 5.11300781 0.48578125 5.91351562 0.4140625 6.73828125 C0 9 0 9 -2 12 C-3.34899329 5.74557657 -3.34899329 5.74557657 -1.625 2.0625 C-1.08875 1.381875 -0.5525 0.70125 0 0 Z " fill="#F7F2E8" transform="translate(318,604)"/>
<path d="M0 0 C1.485 0.99 1.485 0.99 3 2 C2.67 6.62 2.34 11.24 2 16 C-0.05279359 11.89441282 -0.2216942 10.19793315 -0.125 5.75 C-0.10695313 4.67234375 -0.08890625 3.5946875 -0.0703125 2.484375 C-0.04710937 1.66453125 -0.02390625 0.8446875 0 0 Z " fill="#AA824C" transform="translate(756,403)"/>
<path d="M0 0 C0.66 0.33 1.32 0.66 2 1 C0.73461631 1.84158536 -0.53753779 2.67299748 -1.8125 3.5 C-2.87404297 4.19609375 -2.87404297 4.19609375 -3.95703125 4.90625 C-6 6 -6 6 -9 6 C-9 5.34 -9 4.68 -9 4 C-7.54618103 3.30300448 -6.08677047 2.61766134 -4.625 1.9375 C-3.40683594 1.36322266 -3.40683594 1.36322266 -2.1640625 0.77734375 C-1.44992187 0.52082031 -0.73578125 0.26429688 0 0 Z " fill="#9B7441" transform="translate(608,787)"/>
</svg>
